<svg preserveAspectRatio="none" width="100%" height="100%" overflow="visible" style="display: block;" viewBox="0 0 238.512 99.7645" fill="none" xmlns="http://www.w3.org/2000/svg">
<g id="Group">
<path id="Vector" fill-rule="evenodd" clip-rule="evenodd" d="M230.899 28.648C230.521 28.8027 230.279 29.3953 230.034 29.698C229.908 29.8531 229.758 29.8773 229.564 29.7996C228.144 29.2336 227.055 28.2855 226.271 26.9781C226.138 26.7754 226.162 26.6152 226.322 26.427C226.559 26.148 226.856 25.8313 226.92 25.4555C227.063 24.6242 225.976 22.0457 224.541 23.2141C220.411 26.5793 231.43 35.5047 233.418 30.6773C233.981 29.309 231.527 28.391 230.899 28.648ZM228.512 35.732C227.051 35.732 225.614 35.3438 224.356 34.6086C224.154 34.4902 223.91 34.459 223.684 34.5203L220.95 35.2707L221.902 33.1727C221.966 33.0326 221.992 32.8782 221.976 32.725C221.961 32.5719 221.906 32.4256 221.816 32.3008C220.797 30.8887 220.258 29.2215 220.258 27.4789C220.258 22.9277 223.961 19.2254 228.512 19.2254C233.063 19.2254 236.765 22.9277 236.765 27.4789C236.765 32.0297 233.063 35.732 228.512 35.732ZM228.512 17.4789C222.998 17.4789 218.512 21.9648 218.512 27.4789C218.512 29.4188 219.063 31.2816 220.109 32.8984L218.59 36.2441C218.521 36.3953 218.497 36.5628 218.52 36.7272C218.543 36.8915 218.613 37.0459 218.72 37.1723C218.802 37.2684 218.904 37.3455 219.019 37.3985C219.134 37.4514 219.259 37.4788 219.385 37.4789C219.948 37.4789 223.02 36.5137 223.802 36.2992C225.246 37.0723 226.867 37.4789 228.512 37.4789C234.025 37.4789 238.512 32.9926 238.512 27.4789C238.512 21.9648 234.025 17.4789 228.512 17.4789Z" fill="var(--fill-0, #39AE41)"/>
<path id="Vector_2" fill-rule="evenodd" clip-rule="evenodd" d="M87.1363 1.35C84.3644 1.26094 82.4867 2.82539 81.5031 6.04649C82.8539 5.46563 84.5383 5.44961 84.3301 7.4332C84.2375 8.50703 82.1574 12.4379 81.098 12.4379C79.7953 12.4379 78.9738 5.8457 78.8078 4.79453C78.448 2.51641 77.4902 1.45234 75.934 1.60195C74.4809 1.73516 71.2973 4.90742 70.0512 6.00195L70.9926 7.21484C71.8891 6.5875 72.4129 6.27188 72.5617 6.27188C75.1242 6.27188 75.0809 18.6535 79.0613 18.6535C83.0305 18.6535 89.868 9.1457 90.0414 5.35117C90.1598 2.74414 89.1914 1.41172 87.1363 1.35Z" fill="var(--fill-0, #00AAE1)"/>
<path id="Vector_3" fill-rule="evenodd" clip-rule="evenodd" d="M115.595 9.47305C115.392 9.0043 115.181 8.53633 114.955 8.07344C116.88 7.23984 118.427 6.10781 119.579 4.67227C120.704 6.00078 121.409 7.6875 121.514 9.53437C119.368 9.1832 117.394 9.16367 115.595 9.47305ZM117.861 16.8664C117.496 14.9062 116.961 12.9895 116.262 11.1195C117.825 10.8984 119.545 10.9559 121.427 11.2832C121.063 13.6047 119.738 15.6102 117.861 16.8664ZM108.207 16.5086C109.847 13.9348 111.942 12.2594 114.538 11.4859C115.311 13.5027 115.879 15.5773 116.241 17.7023C113.537 18.7473 110.498 18.2984 108.207 16.5086ZM105.027 9.78711C108.233 9.78242 111 9.41406 113.318 8.68477C113.512 9.08047 113.698 9.47773 113.876 9.87852C111.06 10.7582 108.739 12.5625 106.929 15.2781C105.626 13.7145 104.977 11.8176 105.027 9.78711ZM109.549 2.6375C110.659 4.08945 111.641 5.58633 112.496 7.12227C110.471 7.71836 108.054 8.02461 105.259 8.04375C105.837 5.68125 107.428 3.71641 109.549 2.6375ZM118.312 3.46641C117.308 4.76094 115.922 5.78476 114.157 6.53242C113.31 4.98203 112.343 3.46953 111.25 2.00156C113.724 1.3707 116.282 1.89883 118.312 3.46641ZM113.276 0C107.754 0 103.276 4.47695 103.276 10C103.276 15.5227 107.754 20 113.276 20C118.799 20 123.276 15.5227 123.276 10C123.276 4.47695 118.799 0 113.276 0Z" fill="var(--fill-0, #D31F61)"/>
<path id="Vector_4" d="M144.191 0.644141C149.714 0.644141 154.191 4.22891 154.191 8.65156C154.191 13.9746 144.267 19.9125 143.502 19.3141C142.844 18.8004 144.645 16.8492 142.435 16.5355C138.413 15.9609 134.191 13.0984 134.191 8.65156C134.191 4.22891 138.668 0.644141 144.191 0.644141ZM138.432 11.2055H140.406C140.693 11.2055 140.927 10.9707 140.927 10.684C140.927 10.3746 140.73 10.1188 140.406 10.1188H138.954V6.81602C138.954 6.52891 138.72 6.29414 138.432 6.29414C138.123 6.29414 137.868 6.49141 137.868 6.81602V10.684C137.868 11.0078 138.123 11.2055 138.432 11.2055ZM150.886 8.78086C150.886 8.47188 150.689 8.21602 150.365 8.21602H148.913V7.39024H150.365C150.652 7.39024 150.886 7.15547 150.886 6.86875C150.886 6.55938 150.689 6.30352 150.365 6.30352H148.391C148.082 6.30352 147.827 6.50078 147.827 6.82539V10.693C147.827 10.9801 148.061 11.2148 148.348 11.2148H150.365C150.652 11.2148 150.886 10.9801 150.886 10.693C150.886 10.384 150.689 10.1281 150.365 10.1281H148.913V9.30234H150.365C150.652 9.30273 150.886 9.06797 150.886 8.78086ZM147.159 10.684V6.81602C147.159 6.52891 146.924 6.29453 146.637 6.29453C146.328 6.29453 146.072 6.49141 146.072 6.81602V9.08672L144.187 6.5582C144.097 6.40117 143.927 6.29453 143.734 6.29453C143.425 6.29453 143.169 6.49141 143.169 6.81602V10.684C143.169 11.0086 143.425 11.2059 143.734 11.2059C144.021 11.2059 144.256 10.9711 144.256 10.684V8.37109L146.154 10.9641C146.254 11.1184 146.405 11.2055 146.593 11.2055C146.904 11.2055 147.159 11.0102 147.159 10.684ZM141.913 11.2055C142.2 11.2055 142.435 10.9707 142.435 10.684V6.81602C142.435 6.52891 142.2 6.29453 141.913 6.29453C141.604 6.29453 141.348 6.49141 141.348 6.81602V10.684C141.348 11.0082 141.604 11.2055 141.913 11.2055Z" fill="var(--fill-0, #3ACD01)"/>
<path id="Vector_5" fill-rule="evenodd" clip-rule="evenodd" d="M170.552 19.748C170.552 19.8871 170.664 20 170.804 20H174.395C174.534 20 174.646 19.8871 174.646 19.748V9.92109H177.25C177.38 9.92109 177.489 9.8207 177.5 9.69062L177.751 6.72969C177.754 6.69496 177.749 6.65999 177.738 6.62699C177.727 6.594 177.709 6.56371 177.685 6.53804C177.662 6.51236 177.633 6.49187 177.601 6.47786C177.569 6.46385 177.535 6.45662 177.5 6.45664L174.646 6.45625V4.35625C174.646 3.86367 175.045 3.46445 175.537 3.46445H177.544C177.683 3.46445 177.796 3.35156 177.796 3.2125V0.251563C177.796 0.112891 177.683 0 177.544 0H174.154C172.165 0 170.552 1.6125 170.552 3.60195V6.45625H168.756C168.618 6.45625 168.504 6.56953 168.504 6.70859V9.66914C168.504 9.80859 168.617 9.92109 168.756 9.92109H170.552V19.748Z" fill="var(--fill-0, #178CC8)"/>
<path id="Vector_6" fill-rule="evenodd" clip-rule="evenodd" d="M5.89063 27.6301C2.19493 27.7988 0.253532 29.8781 0.0925941 33.4285C-0.0304527 36.1164 -0.0304527 38.9605 0.0925941 41.6484C0.253532 45.1988 2.19493 47.2777 5.89063 47.4465C8.57891 47.5687 11.4223 47.5687 14.1106 47.4465C17.6617 47.284 19.7394 45.3457 19.9086 41.6484C20.0309 38.959 20.0305 36.1176 19.9086 33.4285C19.743 29.8094 17.7297 27.7953 14.1106 27.6301C11.4223 27.5078 8.57891 27.5078 5.89063 27.6301ZM16.518 32.2172C16.518 32.8777 15.982 33.4137 15.3215 33.4137C14.6606 33.4137 14.1254 32.8777 14.1254 32.2172C14.1254 31.5566 14.6606 31.0211 15.3215 31.0211C15.982 31.0211 16.518 31.5566 16.518 32.2172ZM10.0004 40.8609C8.16524 40.8609 6.67813 39.3734 6.67813 37.5383C6.67813 35.7031 8.16524 34.2156 10.0004 34.2156C11.8355 34.2156 13.3235 35.7031 13.3235 37.5383C13.3235 39.373 11.8355 40.8609 10.0004 40.8609ZM10.0004 32.4195C7.17383 32.4195 4.88164 34.7113 4.88164 37.5383C4.88164 40.3652 7.17383 42.657 10.0004 42.657C12.8277 42.657 15.1195 40.3652 15.1195 37.5383C15.1195 34.7113 12.8277 32.4195 10.0004 32.4195ZM14.0285 29.4242C16.7133 29.5469 17.9922 30.825 18.1141 33.5105C18.2352 36.143 18.2348 38.9336 18.1141 41.5664C17.9891 44.3289 16.6438 45.5332 14.0285 45.6523C11.3949 45.7723 8.60588 45.7723 5.97228 45.6523C3.35666 45.5332 2.01211 44.3289 1.88672 41.5664C1.76602 38.934 1.76602 36.1426 1.88672 33.5105C2.00547 30.8941 3.20978 29.5508 5.97228 29.4242C8.60548 29.3043 11.3953 29.3039 14.0285 29.4242Z" fill="var(--fill-0, #904A97)"/>
<path id="Vector_7" fill-rule="evenodd" clip-rule="evenodd" d="M37.7641 41.4355V38.1246C38.7152 38.1246 41.2879 37.9793 42.0633 38.3348C43.1812 38.8465 43.1051 40.6875 42.0383 41.2168C41.2859 41.5828 38.6996 41.4355 37.7641 41.4355ZM53.2695 31.8855H47.8719V33.1391H53.2695V31.8855ZM50.7277 36.1441C51.9406 36.1441 52.7102 36.884 52.793 38.0898H48.6547C48.8273 36.9063 49.482 36.1441 50.7277 36.1441ZM50.8137 43.9047C52.6043 43.9043 54.9262 42.873 55.1605 40.9047H52.7082C52.318 41.6434 51.7191 41.9578 50.8801 41.9578C49.4519 41.9578 48.6531 41.1008 48.5957 39.6738H55.2852C55.3309 36.6246 54.3074 34.1637 50.7266 34.1637C47.7297 34.1633 46.1777 36.2273 46.1777 39.0969C46.1777 42.0043 47.8449 43.9047 50.8137 43.9047ZM37.7641 33.3289C38.8609 33.3289 40.9512 33.191 41.9348 33.523C42.8012 33.8828 42.8238 35.3184 42.0969 35.7602C41.291 36.2527 38.7801 36.068 37.7641 36.068V33.3289ZM42.6391 43.4238C44.3551 43.0699 45.4754 41.5902 45.4754 39.8422C45.4754 38.4738 44.8746 37.4059 43.5566 36.927C44.6285 36.3793 45.0797 35.616 45.0797 34.3906C45.0801 32.1305 43.384 31.2027 41.2902 31.1723L35.2867 31.1719V43.593C37.3594 43.593 40.6926 43.8316 42.6391 43.4238Z" fill="var(--fill-0, #178CC8)"/>
<path id="Vector_8" fill-rule="evenodd" clip-rule="evenodd" d="M85.9512 36.4383C82.7512 34.5387 77.4012 34.3383 74.3512 35.2883C73.8512 35.4387 73.3512 35.1387 73.2012 34.6887C73.0512 34.1887 73.3512 33.6887 73.8012 33.5387C77.3512 32.4883 83.2012 32.6883 86.9012 34.8883C87.3512 35.1387 87.5012 35.7387 87.2512 36.1883C87.0012 36.5387 86.4012 36.6883 85.9512 36.4383ZM85.8512 39.2383C85.6012 39.5883 85.1512 39.7387 84.8012 39.4887C82.1012 37.8387 78.0012 37.3387 74.8512 38.3387C74.4512 38.4387 74.0012 38.2383 73.9012 37.8387C73.8012 37.4387 74.0012 36.9887 74.4012 36.8887C78.0508 35.7887 82.5512 36.3387 85.6512 38.2383C85.9512 38.3887 86.1012 38.8887 85.8512 39.2383ZM84.6512 41.9883C84.4512 42.2887 84.1012 42.3887 83.8012 42.1887C81.4512 40.7387 78.5012 40.4387 75.0012 41.2387C74.6512 41.3383 74.3512 41.0887 74.2512 40.7883C74.1512 40.4387 74.4012 40.1383 74.7012 40.0387C78.5012 39.1887 81.8012 39.5387 84.4012 41.1383C84.7512 41.2887 84.8012 41.6883 84.6512 41.9883ZM80.0512 27.5383C74.5285 27.5383 70.0512 32.0156 70.0512 37.5387C70.0512 43.0613 74.5285 47.5383 80.0512 47.5383C85.5742 47.5383 90.0512 43.0613 90.0512 37.5387C90.0512 32.0156 85.5742 27.5383 80.0512 27.5383Z" fill="var(--fill-0, #00A055)"/>
<path id="Vector_9" d="M103.276 41.952L111 37.8141L115 42.0898L123.276 32.9867L115.552 37.1246L111.552 33.1246L103.276 41.952Z" fill="var(--fill-0, #037AFF)"/>
<path id="Vector_10" fill-rule="evenodd" clip-rule="evenodd" d="M134.668 42.1293C136.307 41.8043 137.404 40.7594 138.23 39.3875C139.437 37.3863 137.614 37.9465 136.532 37.0055C135.959 36.507 136.298 35.7887 136.975 35.6254C137.614 35.4711 138.896 36.3957 138.789 35.4746C138.688 34.5945 138.691 33.7094 138.732 32.8258C139.02 26.6809 148.925 26.7023 149.601 32.441C149.718 33.4395 149.672 34.4391 149.593 35.4387C149.508 36.5137 150.685 35.2891 151.609 35.6953C152.198 35.9539 152.351 36.568 151.854 37.0004C151.145 37.618 149.289 37.6121 149.832 38.7609C150.616 40.4184 151.769 41.6773 153.633 42.1145C154.713 42.3668 154.009 43.1992 153.329 43.4566C152.437 43.7957 151.444 43.627 151.3 44.6074C151.222 45.1422 151.061 45.218 150.515 45.1742C149.202 45.0684 148.368 44.7859 147.18 45.7449C145.638 46.9875 143.804 47.3191 142.04 46.2898C139.876 45.0277 140.348 44.9078 137.776 45.1906C137.452 45.2266 137.139 45.134 137.12 44.7988C137.055 43.6031 135.909 43.8215 134.974 43.4305C134.254 43.1297 133.795 42.3023 134.668 42.1293Z" fill="var(--fill-0, #F2EA1A)"/>
<path id="Vector_11" fill-rule="evenodd" clip-rule="evenodd" d="M176.026 37.8051L171.522 40.275C171.326 40.3809 171.15 40.2391 171.15 40.0168V34.9465C171.15 34.7211 171.332 34.5797 171.528 34.691L176.062 37.291C176.262 37.4055 176.228 37.6949 176.026 37.8051ZM183.15 34.8922C183.15 32.4875 181.201 30.5383 178.796 30.5383H167.504C165.1 30.5383 163.15 32.4875 163.15 34.8922V40.1844C163.15 42.5891 165.1 44.5383 167.504 44.5383H178.796C181.201 44.5383 183.15 42.5891 183.15 40.1844V34.8922Z" fill="var(--fill-0, #E7332F)"/>
<path id="Vector_12" d="M3.8147e-06 58.9609V66.2852C0.00664444 67.9414 1.35937 69.2746 3.00898 69.268H13.6856C13.9891 69.268 14.2332 69.0238 14.2332 68.727V61.4023C14.2266 59.7461 12.8738 58.4133 11.2242 58.4199H0.547661C0.244145 58.4199 3.8147e-06 58.6641 3.8147e-06 58.9609ZM14.9129 61.8184L19.3207 58.5981C19.7031 58.2813 20.0004 58.3606 20.0004 58.9348V68.7531C20.0004 69.4066 19.6375 69.3273 19.3207 69.0898L14.9129 65.8762V61.8184Z" fill="var(--fill-0, #4A8CFF)"/>
<path id="Vector_13" d="M42.8867 54.1332L43.1117 55.0426C42.2266 55.2602 41.3796 55.6104 40.5992 56.0812L40.118 55.2781C40.9779 54.7592 41.9114 54.3732 42.8867 54.1332ZM47.4617 55.0426C48.3467 55.2603 49.1938 55.6105 49.9742 56.0812L50.4586 55.2781C49.5977 54.7589 48.6631 54.3729 47.6867 54.1332L47.4617 55.0426ZM36.7242 58.6719C36.2048 59.5315 35.8187 60.4649 35.5789 61.4402L36.4883 61.6652C36.7059 60.7802 37.0562 59.9333 37.5273 59.1531L36.7242 58.6719ZM36.3258 62.4824L35.3992 62.3418C35.2492 63.335 35.2492 64.3451 35.3992 65.3383L36.3258 65.1977C36.1898 64.2977 36.1898 63.3824 36.3258 62.4824ZM49.9742 71.5988C49.1948 72.0695 48.3488 72.4198 47.4649 72.6379L47.6898 73.5473C48.6641 73.3069 49.5965 72.9208 50.4555 72.402L49.9742 71.5988ZM54.2477 65.1977L55.1742 65.3383C55.3242 64.3451 55.3242 63.335 55.1742 62.3418L54.2477 62.4824C54.3832 63.3801 54.3832 64.3 54.2477 65.1977ZM54.0852 66.0148C53.8672 66.8998 53.5169 67.7469 53.0461 68.5273L53.8492 69.0117C54.3685 68.1508 54.7546 67.2162 54.9945 66.2398L54.0852 66.0148ZM46.6445 72.802C45.7443 72.9375 44.8288 72.9375 43.9285 72.802L43.7883 73.7285C44.7816 73.8785 45.7918 73.8785 46.7852 73.7285L46.6445 72.802ZM52.5816 69.2164C52.0413 69.9484 51.3941 70.5951 50.6617 71.1348L51.218 71.8895C52.0259 71.2953 52.7402 70.5832 53.3367 69.777L52.5816 69.2164ZM50.6617 56.5453C51.3941 57.0858 52.0413 57.7331 52.5816 58.4656L53.3367 57.9031C52.742 57.0974 52.0299 56.3854 51.2242 55.7906L50.6617 56.5453ZM37.9914 58.4656C38.5318 57.733 39.1791 57.0857 39.9117 56.5453L39.3492 55.7906C38.5434 56.3852 37.8313 57.0973 37.2367 57.9031L37.9914 58.4656ZM53.0461 59.1531C53.5168 59.9323 53.8672 60.7782 54.0852 61.6621L54.9945 61.4371C54.7541 60.463 54.368 59.5307 53.8492 58.6719L53.0461 59.1531ZM43.9285 54.8801C44.8289 54.7445 45.7442 54.7445 46.6445 54.8801L46.7852 53.9535C45.7918 53.8035 44.7816 53.8035 43.7883 53.9535L43.9285 54.8801ZM38.4727 72.1379L36.5367 72.5895L36.9883 70.6535L36.0758 70.4395L35.6242 72.3754C35.4656 73.0512 36.075 73.6602 36.7508 73.502L38.6852 73.0582L38.4727 72.1379ZM36.2711 69.6039L37.1836 69.816L37.4961 68.4742C37.0404 67.7088 36.7007 66.88 36.4883 66.0148L35.5789 66.2398C35.7828 67.0684 36.0926 67.8671 36.5008 68.6164L36.2711 69.6039ZM39.3039 71.9473L39.5164 72.8598L40.5039 72.6301C41.2532 73.0382 42.0519 73.3481 42.8805 73.552L43.1055 72.6426C42.2423 72.4273 41.4156 72.0856 40.6523 71.6285L39.3039 71.9473ZM38.1785 59.9125C36.7492 62.5004 36.8383 65.6602 38.4117 68.1633L37.6305 71.4957L40.9633 70.7145C43.8863 72.5555 47.6543 72.3469 50.3563 70.1941C53.0582 68.0414 54.1035 64.4156 52.9617 61.1555C50.6461 54.5422 41.5457 53.8156 38.1785 59.9125Z" fill="var(--fill-0, #3A76F0)"/>
<path id="Vector_14" fill-rule="evenodd" clip-rule="evenodd" d="M76.6195 61.9051C82.2039 59.9801 80.2305 53.6566 80.7961 53.8449C84.452 55.6324 88.5633 59.5324 88.5633 65.3824C88.5633 69.8676 85.0859 73.8324 80.032 73.8324C75.5488 74.0355 71.7496 70.568 71.5465 66.0844C71.3352 61.4359 75.6769 58.0457 75.6769 58.8824C75.7156 59.359 76.1203 61.9051 76.6195 61.9051Z" fill="var(--fill-0, #E73D76)"/>
<path id="Vector_15" fill-rule="evenodd" clip-rule="evenodd" d="M113.369 57.2395C116.369 57.4156 118.126 58.7352 118.296 59.9668C118.38 60.7723 117.845 61.3984 116.916 61.3984C115.559 61.3984 115.42 59.5898 113.084 59.5898C112.03 59.5898 111.14 60.0281 111.14 60.9785C111.14 62.9645 118.627 61.8109 118.627 66.184C118.627 68.7047 116.609 70.3563 113.597 70.3563C110.948 70.3563 108.286 69.1555 108.299 67.0879C108.304 66.4641 108.769 65.8918 109.388 65.8918C110.948 65.8918 110.934 68.2094 113.418 68.2094C115.16 68.2094 115.755 67.2586 115.755 66.5961C115.755 64.2035 108.224 65.6707 108.224 61.1707C108.224 58.7352 110.225 57.0555 113.369 57.2395ZM115.012 72.9836C119.818 75.8887 125.445 70.3273 122.427 65.4707C123.554 59.0328 117.92 53.5242 111.557 54.7074C106.763 51.7871 101.112 57.3297 104.118 62.1957C102.97 68.5852 108.571 74.2117 115.012 72.9836Z" fill="var(--fill-0, #178CC8)"/>
<path id="Vector_16" fill-rule="evenodd" clip-rule="evenodd" d="M134.592 73.8406H138.719V60.5074H134.592V73.8406ZM145.317 66.8418C145.317 64.9676 146.18 63.8504 147.832 63.8504C149.349 63.8504 150.078 64.9223 150.078 66.8418V73.841L154.186 73.8406V65.3988C154.186 61.8273 152.162 60.1004 149.335 60.1004C146.507 60.1004 145.317 62.3035 145.317 62.3035V60.5074H141.358V73.8406H145.317V66.8418ZM136.636 58.7617C137.984 58.7617 139.077 57.6594 139.077 56.3008C139.077 54.9426 137.984 53.841 136.636 53.841C135.288 53.841 134.196 54.9426 134.196 56.3008C134.196 57.6594 135.288 58.7617 136.636 58.7617Z" fill="var(--fill-0, #10658F)"/>
<path id="Vector_17" fill-rule="evenodd" clip-rule="evenodd" d="M13.8274 79.7813C13.8281 80.0863 13.9176 84.4953 18.5445 84.7703C18.5445 86.0418 18.5457 86.9637 18.5457 88.177C18.1953 88.1973 15.5 88.0016 13.8219 86.5051L13.8168 93.1371C13.8805 97.7402 10.4934 100.541 6.06525 99.5738C-1.56991 97.2898 0.967201 85.9656 8.63361 87.1777C8.63361 90.8336 8.63555 87.1766 8.63555 90.8336C5.46876 90.3676 4.40938 93.002 5.25079 94.8887C6.01681 96.6059 9.17031 96.9785 10.2699 94.5555C10.3945 94.0813 10.457 93.5406 10.457 92.9336V79.7645L13.8274 79.7813Z" fill="var(--fill-0, black)"/>
<g id="Group_2">
<path id="Vector_18" d="M43.9027 92.9922C43.3777 95.7457 42.7363 98.3855 40.8363 99.7645C40.2496 95.6027 41.6972 92.4773 42.3695 89.159C41.2234 87.2297 42.5074 83.3469 44.925 84.3039C47.8996 85.4805 42.3488 91.477 46.075 92.2258C49.9656 93.0074 51.5539 85.4754 49.1418 83.0262C45.6558 79.4891 38.9949 82.9453 39.814 88.0094C40.0133 89.2473 41.2922 89.6227 40.325 91.3312C38.0941 90.8367 37.4285 89.0773 37.5141 86.7312C37.6519 82.8918 40.964 80.2035 44.2859 79.8316C48.4875 79.3613 52.4305 81.3738 52.975 85.3258C53.5879 89.7867 51.0785 94.6176 46.5863 94.2703C45.3683 94.1754 44.8574 93.5723 43.9027 92.9922Z" fill="var(--fill-0, #D0272C)"/>
<path id="Vector_19" d="M71.7922 79.7645L70.4879 83.2426V97.1543H75.2684V99.7645H77.8781L80.4856 97.1543H84.3973L89.6145 91.9391V79.7645H71.7922ZM73.5301 81.5023H87.8762V91.068L84.8324 94.1117H80.0512L77.4445 96.7184V94.1117H73.5301V81.5023ZM78.3121 90.1996H80.0512V84.9828H78.3121V90.1996ZM83.0938 90.1996H84.8324V84.9828H83.0938V90.1996Z" fill="var(--fill-0, #5A3E85)"/>
<path id="Vector_20" d="M113.092 85.1984C112.634 85.2066 112.248 85.5965 112.256 86.0414C112.264 86.5027 112.644 86.8633 113.114 86.8578C113.586 86.852 113.944 86.4875 113.94 86.0164C113.936 85.5543 113.558 85.1898 113.092 85.1984ZM118.968 90.5199C118.605 90.5172 118.296 90.8145 118.282 91.1813C118.266 91.573 118.571 91.8953 118.959 91.8961C119.334 91.8973 119.63 91.6137 119.644 91.2398C119.659 90.8473 119.354 90.5227 118.968 90.5199ZM115.353 91.2391C115.368 90.848 115.054 90.5199 114.662 90.5184C114.274 90.5168 113.949 90.8492 113.963 91.2344C113.975 91.6027 114.286 91.9004 114.657 91.9008C115.028 91.9012 115.339 91.6117 115.353 91.2391ZM119.644 97.6613C119.072 97.6016 118.471 97.9312 117.874 97.9926C116.052 98.1789 114.421 97.6711 113.075 96.427C110.516 94.0602 110.882 90.4309 113.842 88.4914C116.473 86.7676 120.332 87.3422 122.187 89.734C123.807 91.8211 123.616 94.5918 121.64 96.3453C120.718 97.1637 121.104 97.4246 121.344 98.3754C120.813 98.1387 120.224 97.7219 119.644 97.6613ZM107.814 85.1988C107.348 85.1848 106.964 85.5418 106.95 86.002C106.936 86.4684 107.293 86.8418 107.763 86.8539C108.229 86.8656 108.62 86.5086 108.637 86.0543C108.655 85.6016 108.26 85.2117 107.814 85.1988ZM110.636 93.5461C109.91 93.4562 109.25 93.3574 108.586 93.3012C108.356 93.282 108.084 93.3094 107.889 93.4191C107.245 93.7832 106.626 94.1941 105.893 94.652C106.028 94.0438 106.115 93.5113 106.269 92.9988C106.382 92.6227 106.33 92.4129 105.983 92.1676C101.487 88.9934 102.905 83.1539 107.935 81.5109C111.854 80.2305 116.771 82.4828 117.176 86.8094C113.398 87.0066 110.296 89.5461 110.636 93.5461Z" fill="var(--fill-0, #3CAF41)"/>
<path id="Vector_21" d="M139.832 84.0852C142.947 84.0852 145.472 86.6281 145.472 89.7645C145.472 92.9012 142.947 95.4438 139.832 95.4438C136.716 95.4438 134.191 92.9012 134.191 89.7645C134.191 86.6281 136.716 84.0852 139.832 84.0852ZM148.839 84.418C150.397 84.418 151.66 86.8113 151.66 89.7645C151.665 90.4762 151.362 95.1113 148.84 95.1113C147.282 95.1113 146.019 92.7168 146.019 89.7645C146.019 86.8121 147.282 84.418 148.839 84.418ZM153.199 84.9746C153.747 84.9746 154.191 87.1191 154.191 89.7645C154.191 92.409 153.747 94.5543 153.199 94.5543C152.651 94.5543 152.207 92.4098 152.207 89.7645C152.207 87.1191 152.651 84.9746 153.199 84.9746Z" fill="var(--fill-0, #1E1B1E)"/>
<path id="Vector_22" d="M170.482 79.7777C169.383 79.7777 168.485 80.6758 168.485 81.775C168.485 82.8742 169.383 83.7723 170.482 83.7723H172.48V81.775C172.48 80.6758 171.595 79.7777 170.482 79.7777ZM163.177 92.432C163.177 93.5313 164.075 94.4293 165.174 94.4293C166.273 94.4293 167.171 93.5313 167.171 92.432V90.4348H165.174C164.062 90.4348 163.177 91.3328 163.177 92.432ZM168.498 92.432V97.7672C168.498 98.8664 169.397 99.7645 170.496 99.7645C171.595 99.7645 172.493 98.8664 172.493 97.7672V92.432C172.493 91.3328 171.595 90.4348 170.496 90.4348C169.383 90.4348 168.498 91.3328 168.498 92.432ZM175.804 99.7645C176.904 99.7645 177.802 98.8664 177.802 97.7672C177.802 96.668 176.904 95.7699 175.804 95.7699H173.807V97.7672C173.807 98.8664 174.705 99.7645 175.804 99.7645ZM181.126 94.4293C182.225 94.4293 183.123 93.5313 183.123 92.432C183.123 91.3328 182.225 90.4348 181.126 90.4348H175.804C174.705 90.4348 173.807 91.3328 173.807 92.432C173.807 93.5313 174.705 94.4293 175.804 94.4293H181.126ZM183.123 87.0969C183.123 85.9977 182.225 85.0996 181.126 85.0996C180.027 85.0996 179.129 85.9977 179.129 87.0969V89.0941H181.126C182.225 89.1078 183.123 88.2094 183.123 87.0969ZM177.802 87.0969V81.7617C177.802 80.6625 176.904 79.7645 175.804 79.7645C174.705 79.7645 173.807 80.6625 173.807 81.7617V87.0969C173.807 88.1961 174.705 89.0941 175.804 89.0941C176.917 89.1078 177.802 88.2094 177.802 87.0969ZM170.482 85.0996H165.174C164.075 85.0996 163.177 85.9977 163.177 87.0969C163.177 88.1961 164.075 89.0941 165.174 89.0941H170.496C171.595 89.0941 172.493 88.1961 172.493 87.0969C172.48 85.9977 171.595 85.0996 170.482 85.0996Z" fill="var(--fill-0, #E01E5A)"/>
<path id="Vector_23" d="M182.995 57.35L179.832 73.2984C179.832 73.2984 179.39 74.4043 178.173 73.8734L170.841 68.2613C171.826 67.375 179.472 60.5016 179.806 60.1898C180.323 59.7074 180.003 59.4203 179.402 59.7852L168.108 66.9566L163.751 65.4898C163.751 65.4898 163.066 65.2469 162.999 64.716C162.933 64.1852 163.773 63.8977 163.773 63.8977L181.536 56.9297C181.536 56.9297 182.995 56.2883 182.995 57.35Z" fill="var(--fill-0, #23B7EC)"/>
</g>
</g>
</svg>
