<svg preserveAspectRatio="none" width="100%" height="100%" overflow="visible" style="display: block;" viewBox="0 0 22.6846 22.0741" fill="none" xmlns="http://www.w3.org/2000/svg">
<g id="Group">
<g id="Vector" filter="url(#filter0_i_30_364)">
<path d="M22.3467 11.037C20.8361 17.1325 14.6773 22.0741 8.59994 22.0741C2.52255 22.0741 -1.17269 17.1325 0.337942 11.037C1.84857 4.94161 8.00731 0 14.0847 0C20.1621 0 23.8573 4.94161 22.3467 11.037Z" fill="var(--fill-0, #187DF5)"/>
</g>
<path id="Vector_2" d="M8.507 16.643C8.15839 16.643 7.84465 16.5148 7.64711 16.2467L4.80013 12.4472C4.40505 11.9228 4.61422 11.0603 5.27657 10.5242C5.93892 9.99976 6.78721 9.99976 7.19392 10.5242L9.32041 13.368L16.9085 7.27256C17.5708 6.74809 18.4191 6.74809 18.8258 7.27256C19.2209 7.79702 19.0117 8.65946 18.3494 9.19558L9.56444 16.2467C9.23908 16.5148 8.8556 16.643 8.507 16.643Z" fill="var(--fill-0, white)"/>
</g>
<defs>
<filter id="filter0_i_30_364" x="0" y="0" width="22.6846" height="26.0741" filterUnits="userSpaceOnUse" color-interpolation-filters="sRGB">
<feFlood flood-opacity="0" result="BackgroundImageFix"/>
<feBlend mode="normal" in="SourceGraphic" in2="BackgroundImageFix" result="shape"/>
<feColorMatrix in="SourceAlpha" type="matrix" values="0 0 0 0 0 0 0 0 0 0 0 0 0 0 0 0 0 0 127 0" result="hardAlpha"/>
<feOffset dy="4"/>
<feGaussianBlur stdDeviation="2"/>
<feComposite in2="hardAlpha" operator="arithmetic" k2="-1" k3="1"/>
<feColorMatrix type="matrix" values="0 0 0 0 0 0 0 0 0 0 0 0 0 0 0 0 0 0 0.25 0"/>
<feBlend mode="normal" in2="shape" result="effect1_innerShadow_30_364"/>
</filter>
</defs>
</svg>
