<svg preserveAspectRatio="none" width="100%" height="100%" overflow="visible" style="display: block;" viewBox="0 0 66.2667 46.7355" fill="none" xmlns="http://www.w3.org/2000/svg">
<g id="Group">
<g id="Group_2">
<path id="Vector" d="M26.934 4.84837H23.9824C23.4595 4.84837 23.2039 4.4288 23.413 3.90434L24.6099 0.944031C24.8191 0.419568 25.4117 8.983e-07 25.9346 8.983e-07H28.8862C29.4091 8.983e-07 29.6647 0.419568 29.4439 0.944031L28.247 3.90434C28.0379 4.4288 27.4452 4.84837 26.9223 4.84837H26.934Z" fill="var(--fill-0, #5F9AE0)"/>
<path id="Vector_2" d="M57.2047 4.84837H54.2532C53.7303 4.84837 53.4746 4.4288 53.6838 3.90434L54.8807 0.944031C55.0898 0.419568 55.6825 8.983e-07 56.2054 8.983e-07H59.1569C59.6798 8.983e-07 59.9355 0.419568 59.7147 0.944031L58.5178 3.90434C58.3086 4.4288 57.716 4.84837 57.1931 4.84837H57.2047Z" fill="var(--fill-0, #5F9AE0)"/>
</g>
<g id="Group_3">
<path id="Vector_3" d="M21.3098 18.8107H18.3582C17.8353 18.8107 17.5797 18.3912 17.8004 17.8667L18.9973 14.9064C19.2065 14.3819 19.7991 13.9624 20.322 13.9624H23.2736C23.7965 13.9624 24.0521 14.3819 23.843 14.9064L22.6461 17.8667C22.4369 18.3912 21.8443 18.8107 21.3214 18.8107H21.3098Z" fill="var(--fill-0, #BFD9FF)"/>
<path id="Vector_4" d="M36.4393 18.8107H33.4878C32.9649 18.8107 32.7092 18.3912 32.93 17.8667L34.1269 14.9064C34.3361 14.3819 34.9287 13.9624 35.4516 13.9624H38.4032C38.9261 13.9624 39.1817 14.3819 38.9725 14.9064L37.7757 17.8667C37.5665 18.3912 36.9739 18.8107 36.451 18.8107H36.4393Z" fill="var(--fill-0, #FF8D02)"/>
<path id="Vector_5" d="M51.5805 18.8107H48.629C48.1061 18.8107 47.8504 18.3912 48.0712 17.8667L49.2681 14.9064C49.4772 14.3819 50.0699 13.9624 50.5928 13.9624H53.5443C54.0672 13.9624 54.3229 14.3819 54.1137 14.9064L52.9168 17.8667C52.7077 18.3912 52.115 18.8107 51.5921 18.8107H51.5805Z" fill="var(--fill-0, #BFD9FF)"/>
<path id="Vector_6" d="M63.6772 18.8107H60.7256C60.2027 18.8107 59.9471 18.3912 60.1563 17.8667L61.3532 14.9064C61.5623 14.3819 62.1549 13.9624 62.6779 13.9624H65.6294C66.1523 13.9624 66.408 14.3819 66.1872 14.9064L64.9903 17.8667C64.7811 18.3912 64.1885 18.8107 63.6656 18.8107H63.6772Z" fill="var(--fill-0, #BFD9FF)"/>
</g>
<g id="Group_4">
<path id="Vector_7" d="M15.6856 32.7731H12.734C12.2111 32.7731 11.9555 32.3535 12.1762 31.8291L13.3731 28.8688C13.5823 28.3443 14.1749 27.9247 14.6978 27.9247H17.6494C18.1723 27.9247 18.4279 28.3443 18.2188 28.8688L17.0219 31.8291C16.8127 32.3535 16.2201 32.7731 15.6972 32.7731H15.6856Z" fill="var(--fill-0, #BFD9FF)"/>
<path id="Vector_8" d="M3.58888 32.7731H0.63734C0.114429 32.7731 -0.141221 32.3535 0.0795639 31.8291L1.27645 28.8688C1.48561 28.3443 2.07824 27.9247 2.60116 27.9247H5.5527C6.07561 27.9247 6.33126 28.3443 6.1221 28.8688L4.92521 31.8291C4.71604 32.3535 4.12341 32.7731 3.6005 32.7731H3.58888Z" fill="var(--fill-0, #BFD9FF)"/>
<path id="Vector_9" d="M30.8151 32.7731H27.8636C27.3407 32.7731 27.085 32.3535 27.3058 31.8291L28.5027 28.8688C28.7119 28.3443 29.3045 27.9247 29.8274 27.9247H32.7789C33.3019 27.9247 33.5575 28.3443 33.3367 28.8688L32.1398 31.8291C31.9307 32.3535 31.338 32.7731 30.8151 32.7731Z" fill="var(--fill-0, #BFD9FF)"/>
<path id="Vector_10" d="M45.9563 32.7731H43.0048C42.4819 32.7731 42.2262 32.3535 42.447 31.8291L43.6439 28.8688C43.853 28.3443 44.4457 27.9247 44.9686 27.9247H47.9201C48.443 27.9247 48.6987 28.3443 48.4779 28.8688L47.281 31.8291C47.0719 32.3535 46.4792 32.7731 45.9563 32.7731Z" fill="var(--fill-0, #FF8D02)"/>
</g>
<path id="Vector_11" d="M10.0614 46.7355H7.10982C6.58691 46.7355 6.33126 46.3159 6.55204 45.7914L7.74893 42.8311C7.95809 42.3067 8.55072 41.8871 9.07363 41.8871H12.0252C12.5481 41.8871 12.8037 42.3067 12.583 42.8311L11.3861 45.7914C11.1769 46.3159 10.5843 46.7355 10.0614 46.7355Z" fill="var(--fill-0, #FF8D02)"/>
</g>
</svg>
