<svg preserveAspectRatio="none" width="100%" height="100%" overflow="visible" style="display: block;" viewBox="0 0 39.4484 39.4305" fill="none" xmlns="http://www.w3.org/2000/svg">
<g id="Group">
<path id="Vector" d="M29.2249 15.585C29.2249 15.585 38.3352 20.1303 39.2997 24.291C40.2642 28.4518 36.2203 39.4305 36.2203 39.4305H0C0 39.4305 5.93795 26.5637 10.5512 23.5335C15.1644 20.5032 24.0772 18.1956 24.0772 18.1956L29.2249 15.585Z" fill="var(--fill-0, #036AE5)"/>
<g id="Group_2">
<g id="Group_3">
<path id="Vector_2" d="M25.4948 12.6247L22.6479 18.7783C22.2877 19.5476 22.5084 20.2468 23.1708 20.4566C24.205 20.7713 25.9364 20.9578 28.0629 19.8972C28.7137 19.5709 29.2249 18.9648 29.4109 18.3588C30.2824 15.4334 32.2346 9.45457 32.2346 9.45457L25.4832 12.6247H25.4948Z" fill="var(--fill-0, #EAEDF2)"/>
<path id="Vector_3" d="M25.797 5.79499C25.797 5.79499 20.1263 13.6153 20.3471 15.9113C20.8467 17.5196 29.2017 14.9906 30.9447 12.9277C32.6994 10.8531 36.4644 7.1819 34.8259 4.41973C33.1874 1.65756 29.5619 2.12375 25.7853 5.79499H25.797Z" fill="var(--fill-0, #EAEDF2)"/>
</g>
<path id="Vector_4" d="M26.0294 4.64117C26.0294 4.64117 25.9364 4.76937 25.8318 4.94419C25.5064 5.50361 25.0184 6.62247 26.378 6.6924L28.1907 6.78564C28.1907 6.78564 31.1074 5.11901 32.2578 6.87888C33.1061 8.63874 30.3288 9.72262 30.5613 10.5967C30.7937 11.4825 30.6774 11.2844 30.2824 11.7739C29.8873 12.2634 29.5735 13.0442 28.2604 13.6386C26.9474 14.2214 25.9132 14.1281 24.6582 14.8157C23.4032 15.5034 20.9862 14.7225 20.7305 14.1281C20.1495 13.6386 19.8125 14.7109 19.4407 15.3985C19.0688 16.0861 17.9184 16.2842 19.0223 17.1583C20.1379 18.0441 20.9513 18.4287 22.8919 17.2516C24.8325 16.0745 24.8906 16.1793 26.8428 15.6782C28.795 15.1887 30.2475 14.198 31.0028 12.9743C31.7581 11.7505 31.9905 10.1888 32.618 9.59443C33.2455 9.00004 33.5941 9.59443 33.3152 10.2821C33.0364 10.9697 35.6974 9.69932 36.3365 7.63644C36.9756 5.57355 35.8601 5.67844 35.7439 4.50131C35.6277 3.32418 36.964 1.94893 35.5463 0.87669C34.1287 -0.195545 32.7923 1.16805 32.281 0.480425C31.7814 -0.207204 29.5735 -0.300438 27.8073 1.16806C26.041 2.63655 25.948 4.72275 25.948 4.72275" fill="var(--fill-0, #036AE5)"/>
<path id="Vector_5" d="M32.2811 9.80421C32.2811 9.80421 33.048 8.81356 33.9079 9.22147C34.7562 9.66435 32.1765 12.6013 31.2469 12.275C30.3637 11.9021 32.2694 9.81587 32.2694 9.81587L32.2811 9.80421Z" fill="var(--fill-0, #EAEDF2)"/>
<path id="Vector_6" d="M20.1263 14.4428C20.1263 14.4428 20.9629 11.4009 23.0662 11.0163C25.1695 10.6317 26.1339 11.9021 25.9945 12.9743C25.8551 14.0465 26.7847 14.6409 26.7847 14.6409C26.7847 14.6409 21.4626 17.1933 20.1263 14.4428Z" fill="var(--fill-0, #036AE5)"/>
</g>
</g>
</svg>
