<svg preserveAspectRatio="none" width="100%" height="100%" overflow="visible" style="display: block;" viewBox="0 0 43.0629 60" fill="none" xmlns="http://www.w3.org/2000/svg">
<g id="Layer 1">
<path id="Vector" d="M43.0629 17.3642C41.993 18.8302 40.6338 20.0546 39.0718 20.9593C37.5097 21.8641 35.779 22.4295 33.9897 22.6196C32.2004 22.8097 30.3917 22.6204 28.6785 22.0636C26.9653 21.5067 25.3852 20.5947 24.0386 19.3854C22.692 18.1761 21.6085 16.696 20.8568 15.0393C20.1052 13.3825 19.7019 11.5854 19.6727 9.7621C19.6434 7.93883 19.9888 6.12934 20.6869 4.4487C21.385 2.76806 22.4205 1.25304 23.7275 0L43.0629 17.3642Z" fill="var(--fill-0, #036AE5)"/>
<path id="Vector_2" d="M5.98039 41.4889C4.4676 40.5083 3.17226 39.2198 2.17644 37.7052C1.18063 36.1906 0.506048 34.4829 0.195444 32.6902C-0.11516 30.8975 -0.0550168 29.059 0.372063 27.2912C0.799142 25.5233 1.58385 23.8646 2.67646 22.4202C3.76907 20.9758 5.14577 19.7771 6.71933 18.9002C8.29289 18.0232 10.029 17.4871 11.8177 17.3258C13.6063 17.1645 15.4086 17.3815 17.1102 17.963C18.8118 18.5446 20.3757 19.478 21.7027 20.7042L5.98039 41.4889Z" fill="var(--fill-0, #036AE5)"/>
<path id="Vector_3" d="M7.96554 42.7364C9.02949 41.2686 10.3828 40.0409 11.9396 39.1311C13.4964 38.2214 15.2228 37.6496 17.0092 37.4518C18.7956 37.2541 20.603 37.4348 22.3169 37.9825C24.0307 38.5302 25.6136 39.4329 26.965 40.6334C28.3165 41.8338 29.407 43.3059 30.1675 44.9561C30.928 46.6064 31.3418 48.3988 31.3827 50.2197C31.4236 52.0407 31.0907 53.8503 30.4051 55.534C29.7196 57.2176 28.6962 58.7384 27.4001 60L7.96554 42.7364Z" fill="var(--fill-0, #036AE5)"/>
</g>
</svg>
