<svg preserveAspectRatio="none" width="100%" height="100%" overflow="visible" style="display: block;" viewBox="0 0 109.124 40" fill="none" xmlns="http://www.w3.org/2000/svg">
<g id="Layer 1">
<path id="Vector" d="M41.5834 25.0168C41.5834 26.2106 41.2342 27.1094 40.5493 27.713C39.8643 28.3166 38.8973 28.6117 37.6752 28.6117H31.3227V26.4655H38.0781C38.2601 26.4677 38.4402 26.4291 38.6053 26.3525C38.7703 26.2759 38.916 26.1632 39.0316 26.0228C39.2851 25.7289 39.4192 25.3509 39.4077 24.9631C39.4144 24.5843 39.2805 24.2163 39.0316 23.9303C38.9169 23.7889 38.7714 23.6755 38.6062 23.5987C38.4409 23.522 38.2603 23.484 38.0781 23.4876H34.5997C33.9796 23.5059 33.3624 23.3963 32.7866 23.1657C32.3281 22.9801 31.919 22.6908 31.5913 22.3206C31.2913 21.9879 31.0668 21.5944 30.9332 21.167C30.802 20.7595 30.7341 20.3342 30.7318 19.9061C30.7268 19.4281 30.7994 18.9525 30.9467 18.4977C31.0923 18.0698 31.3256 17.6769 31.6316 17.3441C31.9715 16.9949 32.3842 16.7247 32.8403 16.5527C33.4089 16.3507 34.0099 16.2552 34.6131 16.271H40.7776V18.444H34.2639C34.0779 18.4425 33.8941 18.4838 33.7267 18.5647C33.5658 18.6472 33.4167 18.751 33.2835 18.8733C33.158 19.0088 33.0538 19.1625 32.9746 19.3293C32.8936 19.5013 32.8523 19.6893 32.8538 19.8793C32.8491 20.0707 32.8836 20.2611 32.9552 20.4387C33.0268 20.6163 33.1339 20.7774 33.2701 20.9122C33.399 21.0487 33.5554 21.1563 33.7291 21.228C33.9027 21.2997 34.0896 21.3338 34.2774 21.328H37.7021C38.8973 21.328 39.8375 21.6365 40.5358 22.2267C41.2342 22.8169 41.5699 23.7291 41.5699 24.9229V25.0168H41.5834Z" fill="var(--fill-0, #0960C7)"/>
<path id="Vector_2" d="M50.004 16.2844C53.7242 16.2844 55.591 18.3233 55.6313 22.4011V22.4548C55.6313 26.5594 53.76 28.6117 50.0175 28.6117H49.0505C45.3035 28.6117 43.4322 26.5594 43.4367 22.4548V22.4011C43.4501 18.3233 45.3258 16.2844 49.0639 16.2844H50.004ZM48.5133 18.4441C47.5329 18.4441 46.8076 18.766 46.3242 19.4099C45.8407 20.0537 45.5989 21.0732 45.5989 22.4682C45.5989 25.1241 46.5659 26.4655 48.4998 26.4655H50.5815C52.5155 26.4655 53.4824 25.1376 53.4824 22.4682C53.4824 21.0732 53.2407 20.0537 52.7438 19.4099C52.2469 18.766 51.5216 18.4441 50.5547 18.4441H48.5133Z" fill="var(--fill-0, #0960C7)"/>
<path id="Vector_3" d="M61.6882 28.6117H59.5394V18.444H56.4908V16.271H64.5623V18.444H61.6882V28.6117V28.6117Z" fill="var(--fill-0, #0960C7)"/>
<path id="Vector_4" d="M74.326 28.6117L70.8476 18.8062C70.8193 18.7052 70.7573 18.6168 70.6718 18.5558C70.5863 18.4948 70.4825 18.4649 70.3776 18.4709C70.273 18.4665 70.17 18.4972 70.0849 18.5579C69.9997 18.6187 69.9373 18.706 69.9075 18.8062L66.4291 28.6117H64.1325L67.9736 17.8673C68.1282 17.3745 68.4515 16.9519 68.8868 16.6734C69.335 16.4011 69.8533 16.2659 70.3776 16.2844C70.9011 16.2723 71.4176 16.4071 71.8683 16.6734C72.3008 16.955 72.6232 17.3765 72.7816 17.8673L76.6226 28.6117H74.326Z" fill="var(--fill-0, #0960C7)"/>
<path id="Vector_5" d="M82.008 28.6117H79.8592V18.444H76.8105V16.271H84.8821V18.444H82.008V28.6117Z" fill="var(--fill-0, #0960C7)"/>
<path id="Vector_6" d="M96.5799 18.4441H90.0663C89.8803 18.4425 89.6965 18.4838 89.5291 18.5648C89.3682 18.6473 89.2191 18.7511 89.0859 18.8733C88.9603 19.0088 88.8562 19.1626 88.777 19.3294C88.696 19.5014 88.6547 19.6893 88.6561 19.8794C88.6495 20.2606 88.7888 20.6301 89.0456 20.9122C89.1766 21.0497 89.3353 21.1579 89.5113 21.2296C89.6872 21.3012 89.8764 21.3348 90.0663 21.3281H96.5531V23.5011H90.0394C89.8534 23.4995 89.6696 23.5408 89.5022 23.6218C89.3413 23.7043 89.1922 23.8081 89.059 23.9303C88.9335 24.0658 88.8293 24.2196 88.7501 24.3864C88.6691 24.5584 88.6278 24.7463 88.6293 24.9364C88.6155 25.343 88.7544 25.7401 89.0187 26.0497C89.1485 26.1896 89.3067 26.3003 89.4827 26.3743C89.6587 26.4483 89.8485 26.484 90.0394 26.479H96.5262V28.6252H90.3658C89.7471 28.6407 89.1313 28.5359 88.5527 28.3167C88.0931 28.1324 87.6802 27.8483 87.344 27.485C87.0436 27.1475 86.8192 26.7495 86.6859 26.318C86.5525 25.8879 86.4846 25.4403 86.4844 24.99C86.4793 24.4946 86.5848 24.0043 86.7933 23.5548C87.0044 23.0834 87.3625 22.6928 87.814 22.4414C87.3587 22.1885 86.9999 21.7924 86.7933 21.3147C86.5998 20.8885 86.4948 20.4277 86.4844 19.9599C86.4828 19.4635 86.5599 18.97 86.7128 18.4977C86.8617 18.0654 87.1048 17.6714 87.4246 17.3442C87.7668 17.0075 88.1797 16.7509 88.6333 16.593C89.1912 16.4055 89.7772 16.3147 90.3658 16.3247H96.5302V18.4441H96.5799Z" fill="var(--fill-0, #0960C7)"/>
<path id="Vector_7" d="M100.945 28.6116H98.7823V16.2709H100.945V20.1878L109.124 16.1636V18.6318L100.891 22.4279L109.124 26.3313V28.7324L100.945 24.668V28.6116Z" fill="var(--fill-0, #0960C7)"/>
<path id="Vector_8" d="M29.1334 11.5761C28.4096 12.5535 27.4901 13.3697 26.4333 13.9729C25.3766 14.5761 24.2057 14.953 22.9952 15.0798C21.7846 15.2065 20.561 15.0803 19.4019 14.7091C18.2429 14.3378 17.1739 13.7298 16.2629 12.9236C15.3519 12.1174 14.6188 11.1307 14.1103 10.0262C13.6018 8.92169 13.329 7.72359 13.3092 6.50808C13.2894 5.29256 13.5231 4.08623 13.9953 2.9658C14.4676 1.84537 15.1682 0.835362 16.0525 0L29.1334 11.5761Z" fill="var(--fill-0, #0960C7)"/>
<path id="Vector_9" d="M4.04593 27.6594C3.02248 27.0056 2.14614 26.1466 1.47244 25.1369C0.798734 24.1272 0.342358 22.9887 0.132224 21.7936C-0.0779096 20.5984 -0.0372207 19.3728 0.251713 18.1942C0.540646 17.0156 1.07153 15.9098 1.81071 14.9469C2.5499 13.9839 3.48129 13.1848 4.54585 12.6002C5.61042 12.0156 6.78496 11.6581 7.99505 11.5506C9.20515 11.4431 10.4244 11.5877 11.5756 11.9754C12.7268 12.3631 13.7848 12.9854 14.6826 13.8029L4.04593 27.6594Z" fill="var(--fill-0, #0960C7)"/>
<path id="Vector_10" d="M5.38878 28.4909C6.10857 27.5124 7.02413 26.6939 8.07736 26.0874C9.1306 25.4809 10.2985 25.0997 11.5071 24.9679C12.7157 24.836 13.9384 24.9565 15.0979 25.3216C16.2574 25.6868 17.3283 26.2886 18.2426 27.0889C19.1569 27.8892 19.8947 28.8706 20.4092 29.9707C20.9236 31.0709 21.2036 32.2659 21.2313 33.4798C21.259 34.6938 21.0338 35.9002 20.5699 37.0226C20.1061 38.145 19.4138 39.1589 18.5369 40L5.38878 28.4909Z" fill="var(--fill-0, #0960C7)"/>
</g>
</svg>
