<svg preserveAspectRatio="none" width="100%" height="100%" overflow="visible" style="display: block;" viewBox="0 0 47.0196 33.1577" fill="none" xmlns="http://www.w3.org/2000/svg">
<g id="Group">
<g id="Group_2">
<path id="Vector" d="M19.1115 3.4498H17.0199C16.648 3.4498 16.4737 3.14678 16.6248 2.77382L17.4731 0.675974C17.6241 0.303023 18.0425 0 18.4143 0H20.506C20.8778 0 21.0521 0.303023 20.901 0.675974L20.0528 2.77382C19.9017 3.14678 19.4834 3.4498 19.1115 3.4498Z" fill="var(--fill-0, #F9FBFC)"/>
<path id="Vector_2" d="M40.5857 3.4498H38.4941C38.1223 3.4498 37.948 3.14678 38.099 2.77382L38.9473 0.675974C39.0984 0.303023 39.5167 0 39.8885 0H41.9802C42.352 0 42.5263 0.303023 42.3753 0.675974L41.527 2.77382C41.3759 3.14678 40.9576 3.4498 40.5857 3.4498Z" fill="var(--fill-0, #BFD9FF)"/>
</g>
<g id="Group_3">
<path id="Vector_3" d="M15.1142 13.3447H13.0225C12.6507 13.3447 12.4764 13.0416 12.6274 12.6687L13.4757 10.5708C13.6268 10.1979 14.0451 9.89487 14.417 9.89487H16.5086C16.8804 9.89487 17.0547 10.1979 16.9037 10.5708L16.0554 12.6687C15.9043 13.0416 15.486 13.3447 15.1142 13.3447Z" fill="var(--fill-0, #BFD9FF)"/>
<path id="Vector_4" d="M25.8513 13.3447H23.7596C23.3878 13.3447 23.2135 13.0416 23.3645 12.6687L24.2128 10.5708C24.3639 10.1979 24.7822 9.89486 25.1541 9.89486H27.2457C27.6176 9.89486 27.7919 10.1979 27.6408 10.5708L26.7925 12.6687C26.6414 13.0416 26.2231 13.3447 25.8513 13.3447Z" fill="var(--fill-0, #F9FBFC)"/>
<path id="Vector_5" d="M36.5884 13.3447H34.4967C34.1249 13.3447 33.9506 13.0416 34.1016 12.6687L34.9499 10.5708C35.101 10.1979 35.5193 9.89486 35.8912 9.89486H37.9828C38.3547 9.89486 38.529 10.1979 38.3779 10.5708L37.5296 12.6687C37.3786 13.0416 36.9602 13.3447 36.5884 13.3447Z" fill="var(--fill-0, #F9FBFC)"/>
<path id="Vector_6" d="M45.1758 13.3447H43.0841C42.7123 13.3447 42.5379 13.0416 42.689 12.6687L43.5373 10.5708C43.6884 10.1979 44.1067 9.89486 44.4785 9.89486H46.5702C46.942 9.89486 47.1163 10.1979 46.9653 10.5708L46.117 12.6687C45.9659 13.0416 45.5476 13.3447 45.1758 13.3447Z" fill="var(--fill-0, #F9FBFC)"/>
</g>
<g id="Group_4">
<path id="Vector_7" d="M11.1284 23.2512H9.03677C8.66492 23.2512 8.49062 22.9482 8.64169 22.5752L9.48996 20.4774C9.64102 20.1044 10.0594 19.8014 10.4312 19.8014H12.5228C12.8947 19.8014 13.069 20.1044 12.9179 20.4774L12.0697 22.5752C11.9186 22.9482 11.5003 23.2512 11.1284 23.2512Z" fill="var(--fill-0, #F9FBFC)"/>
<path id="Vector_8" d="M2.54106 23.2512H0.449407C0.0775589 23.2512 -0.0967406 22.9482 0.0543227 22.5752L0.902596 20.4774C1.05366 20.1044 1.47199 19.8014 1.84384 19.8014H3.93548C4.30733 19.8014 4.48164 20.1044 4.33057 20.4774L3.48229 22.5752C3.33123 22.9482 2.9129 23.2512 2.54106 23.2512Z" fill="var(--fill-0, #F9FBFC)"/>
<path id="Vector_9" d="M21.8655 23.2512H19.7739C19.402 23.2512 19.2277 22.9482 19.3788 22.5752L20.2271 20.4774C20.3781 20.1044 20.7965 19.8014 21.1683 19.8014H23.26C23.6318 19.8014 23.8061 20.1044 23.655 20.4774L22.8068 22.5752C22.6557 22.9482 22.2374 23.2512 21.8655 23.2512Z" fill="var(--fill-0, #F9FBFC)"/>
<path id="Vector_10" d="M32.6026 23.2512H30.511C30.1391 23.2512 29.9648 22.9482 30.1159 22.5752L30.9642 20.4774C31.1152 20.1044 31.5336 19.8014 31.9054 19.8014H33.9971C34.3689 19.8014 34.5432 20.1044 34.3922 20.4774L33.5439 22.5752C33.3928 22.9482 32.9745 23.2512 32.6026 23.2512Z" fill="var(--fill-0, #BFD9FF)"/>
</g>
<path id="Vector_11" d="M7.14267 33.1577H5.05102C4.67918 33.1577 4.50488 32.8547 4.65594 32.4817L5.50421 30.3839C5.65528 30.0109 6.07361 29.7079 6.44546 29.7079H8.5371C8.90895 29.7079 9.08326 30.0109 8.93219 30.3839L8.08391 32.4817C7.93285 32.8547 7.51452 33.1577 7.14267 33.1577Z" fill="var(--fill-0, #F9FBFC)"/>
</g>
</svg>
