<svg preserveAspectRatio="none" width="100%" height="100%" overflow="visible" style="display: block;" viewBox="0 0 22.0322 30" fill="none" xmlns="http://www.w3.org/2000/svg">
<g id="Layer 1">
<path id="Vector" d="M22.0322 8.68209C21.4848 9.41511 20.7894 10.0273 19.9902 10.4797C19.191 10.9321 18.3055 11.2148 17.3901 11.3098C16.4746 11.4049 15.5492 11.3102 14.6727 11.0318C13.7962 10.7534 12.9878 10.2973 12.2988 9.6927C11.6099 9.08805 11.0555 8.34801 10.6709 7.51964C10.2864 6.69126 10.08 5.79269 10.0651 4.88105C10.0501 3.96942 10.2268 3.06467 10.584 2.22435C10.9412 1.38403 11.4709 0.626521 12.1397 0L22.0322 8.68209Z" fill="var(--fill-0, #036AE5)"/>
<path id="Vector_2" d="M3.05973 20.7445C2.28575 20.2541 1.62301 19.6099 1.11353 18.8526C0.604042 18.0953 0.258908 17.2414 0.0999946 16.3451C-0.0589191 15.4488 -0.0281481 14.5295 0.190358 13.6456C0.408864 12.7616 0.810341 11.9323 1.36935 11.2101C1.92836 10.4879 2.63272 9.88856 3.4378 9.45008C4.24287 9.01161 5.13112 8.74355 6.04625 8.6629C6.96139 8.58224 7.88346 8.69073 8.75405 8.98151C9.62463 9.27229 10.4248 9.73901 11.1037 10.3521L3.05973 20.7445Z" fill="var(--fill-0, #036AE5)"/>
<path id="Vector_3" d="M4.07539 21.3682C4.61974 20.6343 5.31212 20.0204 6.10863 19.5656C6.90514 19.1107 7.7884 18.8248 8.70236 18.7259C9.61633 18.627 10.5411 18.7174 11.4179 18.9912C12.2948 19.2651 13.1046 19.7164 13.796 20.3167C14.4875 20.9169 15.0454 21.6529 15.4345 22.4781C15.8236 23.3032 16.0353 24.1994 16.0563 25.1099C16.0772 26.0203 15.9069 26.9252 15.5561 27.767C15.2054 28.6088 14.6818 29.3692 14.0187 30L4.07539 21.3682Z" fill="var(--fill-0, #036AE5)"/>
</g>
</svg>
