<svg preserveAspectRatio="none" width="100%" height="100%" overflow="visible" style="display: block;" viewBox="0 0 22 22" fill="none" xmlns="http://www.w3.org/2000/svg">
<g id="10.linkedin">
<path id="Vector" d="M11 22C17.0751 22 22 17.0751 22 11C22 4.92487 17.0751 0 11 0C4.92487 0 0 4.92487 0 11C0 17.0751 4.92487 22 11 22Z" fill="var(--fill-0, #0B69C7)"/>
<g id="Group">
<path id="Vector_2" d="M8.53947 7.00092C8.53976 7.29818 8.45185 7.58885 8.28688 7.83614C8.12191 8.08342 7.88729 8.27621 7.61271 8.3901C7.33812 8.50399 7.03593 8.53386 6.74436 8.47594C6.4528 8.41802 6.18497 8.2749 5.97477 8.0647C5.76457 7.85451 5.62146 7.58668 5.56353 7.29511C5.50561 7.00354 5.53549 6.70135 5.64938 6.42677C5.76327 6.15219 5.95605 5.91756 6.20334 5.75259C6.45062 5.58762 6.74129 5.49971 7.03855 5.5C7.4365 5.50038 7.81805 5.65864 8.09944 5.94003C8.38084 6.22143 8.53909 6.60297 8.53947 7.00092Z" fill="var(--fill-0, white)"/>
<path id="Vector_3" d="M7.82882 9.12855H6.24829C6.04285 9.12855 5.87632 9.29509 5.87632 9.50053V16.128C5.87632 16.3335 6.04285 16.5 6.24829 16.5H7.82882C8.03425 16.5 8.20079 16.3335 8.20079 16.128V9.50053C8.20079 9.29509 8.03425 9.12855 7.82882 9.12855Z" fill="var(--fill-0, white)"/>
<path id="Vector_4" d="M16.4638 12.9496V16.1584C16.4638 16.249 16.4278 16.3359 16.3638 16.4C16.2997 16.464 16.2128 16.5 16.1222 16.5H14.4259C14.3353 16.5 14.2484 16.464 14.1844 16.4C14.1203 16.3359 14.0843 16.249 14.0843 16.1584V13.0495C14.0843 12.5849 14.2189 11.0232 12.8714 11.0232C11.8264 11.0232 11.6137 12.0971 11.5688 12.5791V16.1657C11.5669 16.2545 11.5305 16.3391 11.4673 16.4015C11.404 16.4639 11.319 16.4993 11.2301 16.5H9.58882C9.54391 16.5002 9.4994 16.4915 9.45787 16.4744C9.41634 16.4573 9.37861 16.4321 9.34686 16.4004C9.3151 16.3686 9.28995 16.3309 9.27285 16.2894C9.25575 16.2478 9.24704 16.2033 9.24724 16.1584V9.47158C9.24705 9.4266 9.25574 9.38203 9.27282 9.34042C9.2899 9.29881 9.31503 9.26098 9.34677 9.22911C9.37851 9.19724 9.41623 9.17195 9.45776 9.15469C9.4993 9.13744 9.54384 9.12855 9.58882 9.12855H11.2301C11.2757 9.12778 11.3209 9.13609 11.3632 9.15298C11.4055 9.16988 11.444 9.19502 11.4764 9.22695C11.5089 9.25888 11.5347 9.29696 11.5523 9.33896C11.5699 9.38096 11.579 9.42604 11.5789 9.47158V10.0505C11.9668 9.47158 12.5429 9.02 13.7688 9.02C16.4797 9.01855 16.4638 11.5558 16.4638 12.9496Z" fill="var(--fill-0, white)"/>
</g>
</g>
</svg>
