<svg preserveAspectRatio="none" width="100%" height="100%" overflow="visible" style="display: block;" viewBox="0 0 33.2804 34.6648" fill="none" xmlns="http://www.w3.org/2000/svg">
<g id="Group">
<g id="Group_2">
<path id="Vector" d="M18.7202 19.0708C18.7202 19.0708 8.50602 20.7607 4.13681 22.4856C1.17364 24.2804 0.708835 25.7023 0 27.8351C0 27.8351 0 27.8468 0 27.8584C2.37053 32.0192 6.89082 34.6648 12.7939 34.6648C20.4168 34.6648 28.2604 30.2476 33.2804 23.8375C30.5496 19.8167 18.7319 19.0591 18.7319 19.0591L18.7202 19.0708Z" fill="var(--fill-0, #036AE5)"/>
<path id="Vector_2" d="M15.1296 14.7119L13.3633 22.1709C13.1425 23.1033 13.6073 23.8842 14.4904 24.024C15.8733 24.2455 18.0695 24.2338 20.4051 22.7303C21.114 22.2758 21.5904 21.5066 21.6369 20.784C21.8809 17.2992 22.5898 10.1549 22.5898 10.1549L15.1179 14.7002L15.1296 14.7119Z" fill="var(--fill-0, #FF8D68)"/>
<path id="Vector_3" d="M13.5376 6.79834C13.5376 6.79834 8.73843 16.5417 9.66805 19.164C10.7487 20.9472 20.3935 16.9379 21.9739 14.3273C23.5542 11.7166 27.1798 6.98481 24.356 4.02451C21.5323 1.06421 17.1631 2.07817 13.526 6.79834H13.5376Z" fill="var(--fill-0, #FF8D68)"/>
</g>
<path id="Vector_4" d="M13.5376 6.79834C13.5376 6.79834 12.6893 3.36019 15.5944 1.33227C18.4994 -0.695656 22.2295 -0.28774 23.5659 1.74018C24.9022 3.76811 25.0184 4.07113 25.0184 4.07113C25.0184 4.07113 26.4477 4.37415 26.9241 5.90092C27.4006 7.42769 24.3793 11.2737 23.1475 12.3926C21.9158 13.5115 22.1714 13.5348 22.1714 13.5348L21.7647 12.9986C21.7647 12.9986 21.9971 10.0617 22.5898 8.33676C22.7525 7.42769 21.7066 6.11071 19.8823 5.79603C18.0463 5.493 17.3723 7.20625 13.5376 6.80999V6.79834Z" fill="var(--fill-0, #7E3636)"/>
<path id="Vector_5" d="M22.8919 11.2388C22.8919 11.2388 23.5542 9.99173 24.7511 10.353C25.9364 10.7493 23.5775 14.4671 22.3225 14.2107C21.1256 13.9077 22.8919 11.2388 22.8919 11.2388Z" fill="var(--fill-0, #FF8D68)"/>
<path id="Vector_6" d="M21.7299 19.3854C21.7299 19.3854 19.1618 22.2292 16.6402 23.0334C16.1986 23.1732 15.5363 24.0473 15.5363 24.0473L15.0715 22.8352C15.0715 22.8352 13.34 21.8213 13.8397 20.0614L13.4911 20.3295L12.5615 22.6255C12.5615 22.6255 11.8759 24.7932 11.9107 25.5974L14.2348 24.3154C14.2348 24.3154 15.6525 24.7932 16.7796 24.3853C16.7796 24.3853 17.2561 26.0053 17.6976 26.1452C18.1276 26.285 21.6369 22.9634 22.1714 21.8213C22.7641 20.6675 22.6246 19.5253 22.6246 19.5253L21.7182 19.3854H21.7299Z" fill="var(--fill-0, white)"/>
</g>
</svg>
