<svg preserveAspectRatio="none" width="100%" height="100%" overflow="visible" style="display: block;" viewBox="0 0 35.0512 48" fill="none" xmlns="http://www.w3.org/2000/svg">
<g id="Layer 1">
<path id="Vector" d="M35.0512 13.8913C34.1803 15.0642 33.074 16.0436 31.8026 16.7675C30.5312 17.4913 29.1225 17.9436 27.6661 18.0957C26.2096 18.2478 24.7374 18.0963 23.3429 17.6508C21.9485 17.2054 20.6623 16.4758 19.5663 15.5083C18.4702 14.5409 17.5883 13.3568 16.9765 12.0314C16.3647 10.706 16.0364 9.2683 16.0126 7.80968C15.9888 6.35106 16.27 4.90347 16.8382 3.55896C17.4064 2.21444 18.2492 1.00243 19.3131 0L35.0512 13.8913Z" fill="var(--fill-0, #036AE5)"/>
<path id="Vector_2" d="M4.86776 33.1911C3.63641 32.4066 2.58207 31.3758 1.77152 30.1642C0.960976 28.9525 0.411899 27.5863 0.159082 26.1522C-0.0937348 24.718 -0.0447811 23.2472 0.302842 21.8329C0.650465 20.4186 1.28918 19.0917 2.17851 17.9361C3.06785 16.7806 4.18842 15.8217 5.46922 15.1201C6.75003 14.4186 8.16314 13.9897 9.61904 13.8606C11.0749 13.7316 12.5419 13.9052 13.9269 14.3704C15.3119 14.8357 16.5848 15.5824 17.665 16.5634L4.86776 33.1911Z" fill="var(--fill-0, #036AE5)"/>
<path id="Vector_3" d="M6.48358 34.1891C7.34958 33.0149 8.4511 32.0327 9.71828 31.3049C10.9855 30.5771 12.3906 30.1196 13.8447 29.9615C15.2987 29.8033 16.7699 29.9478 18.1649 30.386C19.5599 30.8241 20.8482 31.5463 21.9483 32.5067C23.0483 33.4671 23.9359 34.6447 24.5549 35.9649C25.1739 37.2851 25.5108 38.7191 25.5441 40.1758C25.5774 41.6325 25.3064 43.0803 24.7484 44.4272C24.1903 45.7741 23.3574 46.9907 22.3024 48L6.48358 34.1891Z" fill="var(--fill-0, #036AE5)"/>
</g>
</svg>
