<svg preserveAspectRatio="none" width="100%" height="100%" overflow="visible" style="display: block;" viewBox="0 0 57.0819 48.9615" fill="none" xmlns="http://www.w3.org/2000/svg">
<g id="Group">
<path id="Vector" d="M14.3203 3.06519C13.6347 4.75513 11.7174 6.13039 10.0208 6.13039C8.32428 6.13039 7.51087 4.75513 8.19646 3.06519C8.88206 1.37526 10.7994 6.847e-07 12.496 6.847e-07C14.1925 6.847e-07 15.0059 1.37526 14.3203 3.06519Z" fill="var(--fill-0, #83B3ED)"/>
<path id="Vector_2" d="M24.9529 3.06519C24.2673 4.75513 22.3499 6.13039 20.6534 6.13039C18.9568 6.13039 18.1434 4.75513 18.829 3.06519C19.5146 1.37526 21.4319 6.847e-07 23.1285 6.847e-07C24.825 6.847e-07 25.6385 1.37526 24.9529 3.06519Z" fill="var(--fill-0, #83B3ED)"/>
<path id="Vector_3" d="M35.5738 3.06519C34.8882 4.75513 32.9708 6.13039 31.2743 6.13039C29.5777 6.13039 28.7643 4.75513 29.4499 3.06519C30.1355 1.37526 32.0528 6.847e-07 33.7494 6.847e-07C35.4459 6.847e-07 36.2594 1.37526 35.5738 3.06519Z" fill="var(--fill-0, #83B3ED)"/>
<path id="Vector_4" d="M46.2063 3.06519C45.5207 4.75513 43.6034 6.13039 41.9068 6.13039C40.2102 6.13039 39.3968 4.75513 40.0824 3.06519C40.768 1.37526 42.6854 6.847e-07 44.3819 6.847e-07C46.0785 6.847e-07 46.8919 1.37526 46.2063 3.06519Z" fill="var(--fill-0, #FF8D02)"/>
<path id="Vector_5" opacity="0.39" d="M56.8388 3.06519C56.1532 4.75513 54.2359 6.13039 52.5393 6.13039C50.8428 6.13039 50.0294 4.75513 50.715 3.06519C51.4005 1.37526 53.3179 6.847e-07 55.0144 6.847e-07C56.711 6.847e-07 57.5244 1.37526 56.8388 3.06519Z" fill="var(--fill-0, #0067E2)"/>
<g id="Group_2">
<g id="Group_3">
<path id="Vector_6" opacity="0.39" d="M31.588 12.4006L18.0969 26.4562L4.11774 32.0155L19.9561 43.6819L35.8759 30.0575L31.588 12.4006Z" fill="var(--fill-0, #0067E2)"/>
<path id="Vector_7" opacity="0.7" d="M28.3808 20.5706L18.0969 26.4562L9.38171 31.9806L21.1879 40.4885L32.3549 30.2557L28.3808 20.5706Z" fill="var(--fill-0, #0067E2)"/>
<path id="Vector_8" d="M31.588 12.4006L18.0969 26.4562L4.11774 32.0155L19.9097 43.7985L35.8759 30.0575L31.588 12.4006Z" stroke="var(--stroke-0, #036AE5)" stroke-width="0.28" stroke-miterlimit="10"/>
<path id="Vector_9" d="M25.2434 31.3629C25.0226 31.899 24.4067 32.3419 23.8722 32.3419C23.3376 32.3419 23.0704 31.899 23.2912 31.3629C23.5119 30.8268 24.1278 30.3839 24.6624 30.3839C25.1969 30.3839 25.4642 30.8268 25.2434 31.3629Z" fill="var(--fill-0, #036AE5)"/>
<path id="Vector_10" d="M11.9847 21.6661L23.9187 31.1414L2.6071 32.237" stroke="var(--stroke-0, #036AE5)" stroke-width="0.28" stroke-miterlimit="10"/>
<path id="Vector_11" d="M19.0265 47.0618L24.3602 31.1414L38.4091 29.7312" stroke="var(--stroke-0, #036AE5)" stroke-width="0.28" stroke-miterlimit="10"/>
<path id="Vector_12" d="M32.3782 10.431L24.3602 31.1414" stroke="var(--stroke-0, #036AE5)" stroke-width="0.28" stroke-miterlimit="10"/>
</g>
<path id="Vector_13" d="M13.0653 21.4797C12.6935 22.3887 11.6709 23.123 10.7645 23.123C9.85815 23.123 9.41658 22.3887 9.78843 21.4797C10.1603 20.5706 11.1829 19.8363 12.0892 19.8363C12.9956 19.8363 13.4372 20.5706 13.0653 21.4797Z" fill="var(--fill-0, #83B3ED)"/>
<path id="Vector_14" d="M3.40891 32.2486C3.03706 33.1577 2.01448 33.892 1.1081 33.892C0.201723 33.892 -0.239843 33.1577 0.132005 32.2486C0.503853 31.3396 1.52643 30.6053 2.43281 30.6053C3.33919 30.6053 3.78075 31.3396 3.40891 32.2486Z" fill="var(--fill-0, #FF8D02)"/>
<path id="Vector_15" d="M20.5836 47.3182C20.2118 48.2273 19.1892 48.9615 18.2828 48.9615C17.3764 48.9615 16.9349 48.2273 17.3067 47.3182C17.6786 46.4091 18.7012 45.6749 19.6075 45.6749C20.5139 45.6749 20.9555 46.4091 20.5836 47.3182Z" fill="var(--fill-0, #83B3ED)"/>
<path id="Vector_16" d="M40.3148 29.7545C39.943 30.6636 38.9204 31.3978 38.014 31.3978C37.1076 31.3978 36.6661 30.6636 37.0379 29.7545C37.4098 28.8455 38.4323 28.1112 39.3387 28.1112C40.2451 28.1112 40.6867 28.8455 40.3148 29.7545Z" fill="var(--fill-0, #83B3ED)"/>
<path id="Vector_17" d="M34.191 9.88321C33.8191 10.7923 32.7965 11.5265 31.8901 11.5265C30.9838 11.5265 30.5422 10.7923 30.914 9.88321C31.2859 8.97414 32.3085 8.23989 33.2149 8.23989C34.1212 8.23989 34.5628 8.97414 34.191 9.88321Z" fill="var(--fill-0, #FF8D02)"/>
</g>
</g>
</svg>
