<svg width="32" height="32" viewBox="0 0 32 32" fill="none" xmlns="http://www.w3.org/2000/svg">
  <rect width="32" height="32" rx="12" fill="#3B579D" fill-opacity="0.05"/>
  <rect x="0.5" y="0.5" width="31" height="31" rx="11.5" stroke="#3B579D" stroke-opacity="0.5"/>
  <path d="M16 26C21.5228 26 26 21.5228 26 16C26 10.4772 21.5228 6 16 6C10.4772 6 6 10.4772 6 16C6 21.5228 10.4772 26 16 26Z" fill="#3B579D"/>
  <path d="M17.82 26V18.2539H20.42L20.81 15.236H17.82V13.308C17.82 12.434 18.062 11.838 19.316 11.838H20.914V9.14C20.638 9.104 19.688 9.022 18.584 9.022C16.28 9.022 14.702 10.428 14.702 13.012V15.238H12.096V18.256H14.702V26H17.82Z" fill="white"/>
</svg>
