<svg preserveAspectRatio="none" width="100%" height="100%" overflow="visible" style="display: block;" viewBox="0 0 59.5809 39.6892" fill="none" xmlns="http://www.w3.org/2000/svg">
<g id="Group">
<path id="Vector" d="M42.6386 8.50112C42.6386 8.50112 45.3926 7.18413 45.7644 8.78082C46.1363 10.3775 44.9161 11.5197 44.9161 11.5197C44.9161 11.5197 47.4029 10.8321 48.0768 12.9649C48.7392 15.0977 46.7405 16.1116 47.5655 16.8809C48.3906 17.6501 50.1104 19.2701 47.705 21.974C45.2996 24.6779 41.7787 27.778 37.7116 25.7851C33.6329 23.7921 34.9343 14.0604 34.9343 14.0604L35.9337 11.2167L42.6386 8.50112Z" fill="var(--fill-0, #036AE5)"/>
<path id="Vector_2" d="M39.9775 0.342816C39.9775 0.342816 33.8304 0.867272 31.8898 5.17952C29.9492 9.49177 33.8072 9.79478 33.8072 9.79478L39.9775 0.342816Z" fill="var(--fill-0, #036AE5)"/>
<path id="Vector_3" d="M0.0503347 29.6778L0.445419 30.3887C0.445419 30.3887 5.17486 36.0529 9.39301 39.6775H18.1663C22.7447 35.4935 28.9848 28.2093 29.0196 27.9062C29.0545 27.4867 34.516 21.5311 33.3191 19.0953C32.1106 16.6711 30.5535 17.0557 30.5535 17.0557C30.5535 17.0557 28.7756 17.3004 26.7769 19.375C24.7782 21.4495 14.9243 36.7755 14.9243 36.7755C14.9243 36.7755 13.6577 34.4912 11.3336 32.7429C8.99793 30.9947 2.18846 27.3119 2.18846 27.3119C2.18846 27.3119 2.60679 24.3515 2.57193 23.7921C2.53707 23.221 0.840507 20.6454 0.317595 21.1931C-0.193695 21.7525 1.0032 24.1767 1.0032 24.1767C1.0032 24.1767 -0.321508 28.9552 0.0735802 29.6661L0.0503347 29.6778Z" fill="var(--fill-0, #EDF0F4)"/>
<path id="Vector_4" d="M22.001 35.3886C22.001 35.3886 22.2566 37.2767 22.7679 39.6775H40.1867C40.5701 35.7382 41.3836 27.813 41.8716 25.925C42.5224 23.3959 41.953 18.0114 42.1621 16.5312C42.3713 15.0511 38.1648 15.5989 38.1648 15.5989L32.68 15.6921L31.7969 16.0767C30.5767 16.6012 29.4844 17.5219 28.764 18.6174C28.09 19.6547 27.079 21.1815 25.7427 23.1744C23.5813 24.8178 18.8054 27.6848 19.154 31.2978C19.5026 34.9107 22.0242 35.3886 22.0242 35.3886H22.001Z" fill="var(--fill-0, #036AE5)"/>
<path id="Vector_5" d="M34.5044 12.3472C34.5044 12.3472 29.6355 18.3843 28.2992 25.9949C29.8911 25.5054 34.7135 21.0649 37.5721 18.3494C38.769 17.2072 38.8852 16.5778 38.6644 15.4124C38.5598 14.8296 39.0595 13.2329 39.7335 11.4031C40.1751 8.87407 34.516 12.3472 34.516 12.3472H34.5044Z" fill="var(--fill-0, #EDF0F4)"/>
<path id="Vector_6" d="M49.785 37.0669C49.785 37.0669 50.5403 38.1158 51.7953 39.6892H59.5809C58.0819 37.6962 56.885 36.0762 56.5131 35.5168C55.2349 33.5821 46.3338 14.0954 40.9071 16.5196C39.9078 16.9624 36.2823 20.016 37.758 23.4425C39.2338 26.869 49.785 37.0669 49.785 37.0669Z" fill="var(--fill-0, #EDF0F4)"/>
<g id="Group_2">
<path id="Vector_7" d="M34.2952 4.37534C33.5283 5.34268 31.5993 7.87176 30.4605 10.0978C29.4612 12.0442 30.1468 13.8273 32.006 14.0255C34.6903 14.3168 38.769 13.6409 40.117 12.1024C42.1156 9.8181 46.3803 5.77391 44.6489 2.62713C42.9639 -0.426408 39.1292 -0.111723 34.9924 3.61779C34.7368 3.85088 34.5044 4.09563 34.2952 4.36369V4.37534Z" fill="var(--fill-0, #EDF0F4)"/>
<path id="Vector_8" d="M36.0964 2.38239C36.0964 2.38239 33.4121 6.78787 41.0466 9.60832L42.0111 10.0395C42.0111 10.0395 45.3461 7.38226 45.3926 4.57347C45.439 1.76468 43.9981 0.739071 42.534 0.121371C41.0814 -0.484675 37.1189 1.32181 36.0964 2.38239Z" fill="var(--fill-0, #036AE5)"/>
</g>
<path id="Vector_9" d="M40.8374 10.2377C40.8374 10.2377 42.7664 8.89739 42.7431 10.1328C42.7199 11.3682 40.0124 12.6852 39.7219 12.1724C39.443 11.6596 40.8258 10.2377 40.8258 10.2377H40.8374Z" fill="var(--fill-0, #EDF0F4)"/>
</g>
</svg>
