<svg width="1440" height="274" viewBox="0 0 1440 274" fill="none" xmlns="http://www.w3.org/2000/svg">
<g clip-path="url(#clip0_31_655)">
<rect width="1440" height="274" fill="url(#paint0_linear_31_655)"/>
<rect width="1440" height="274" fill="url(#paint1_linear_31_655)"/>
<g clip-path="url(#clip1_31_655)">
<g opacity="0.5" clip-path="url(#clip2_31_655)">
<line x1="880.552" y1="-169" x2="880.552" y2="444" stroke="#036AE5" stroke-opacity="0.2" stroke-width="0.478906"/>
<line x1="918.864" y1="-169" x2="918.864" y2="444" stroke="#036AE5" stroke-opacity="0.2" stroke-width="0.478906"/>
<line x1="957.177" y1="-169" x2="957.177" y2="444" stroke="#036AE5" stroke-opacity="0.2" stroke-width="0.478906"/>
<line x1="995.489" y1="-169" x2="995.489" y2="444" stroke="#036AE5" stroke-opacity="0.2" stroke-width="0.478906"/>
<line x1="1033.8" y1="-169" x2="1033.8" y2="444" stroke="#036AE5" stroke-opacity="0.2" stroke-width="0.478906"/>
<line x1="1072.11" y1="-169" x2="1072.11" y2="444" stroke="#036AE5" stroke-opacity="0.2" stroke-width="0.478906"/>
<line x1="1110.43" y1="-169" x2="1110.43" y2="444" stroke="#036AE5" stroke-opacity="0.2" stroke-width="0.478906"/>
<line x1="1148.74" y1="-169" x2="1148.74" y2="444" stroke="#036AE5" stroke-opacity="0.2" stroke-width="0.478906"/>
<line x1="1187.05" y1="-169" x2="1187.05" y2="444" stroke="#036AE5" stroke-opacity="0.2" stroke-width="0.478906"/>
<line x1="1225.36" y1="-169" x2="1225.36" y2="444" stroke="#036AE5" stroke-opacity="0.2" stroke-width="0.478906"/>
<line x1="1263.68" y1="-169" x2="1263.68" y2="444" stroke="#036AE5" stroke-opacity="0.2" stroke-width="0.478906"/>
<line x1="1301.99" y1="-169" x2="1301.99" y2="444" stroke="#036AE5" stroke-opacity="0.2" stroke-width="0.478906"/>
<line x1="1340.3" y1="-169" x2="1340.3" y2="444" stroke="#036AE5" stroke-opacity="0.2" stroke-width="0.478906"/>
<line x1="1378.61" y1="-169" x2="1378.61" y2="444" stroke="#036AE5" stroke-opacity="0.2" stroke-width="0.478906"/>
</g>
<g opacity="0.5" clip-path="url(#clip3_31_655)">
<line x1="842" y1="22.323" x2="1455" y2="22.323" stroke="url(#paint2_linear_31_655)" stroke-opacity="0.4" stroke-width="0.478906"/>
<line x1="842" y1="60.6355" x2="1455" y2="60.6355" stroke="url(#paint3_linear_31_655)" stroke-opacity="0.4" stroke-width="0.478906"/>
<line x1="842" y1="98.948" x2="1455" y2="98.948" stroke="url(#paint4_linear_31_655)" stroke-opacity="0.4" stroke-width="0.478906"/>
<line x1="842" y1="137.261" x2="1455" y2="137.261" stroke="url(#paint5_linear_31_655)" stroke-opacity="0.4" stroke-width="0.478906"/>
<line x1="842" y1="175.573" x2="1455" y2="175.573" stroke="url(#paint6_linear_31_655)" stroke-opacity="0.4" stroke-width="0.478906"/>
<line x1="842" y1="213.886" x2="1455" y2="213.886" stroke="url(#paint7_linear_31_655)" stroke-opacity="0.4" stroke-width="0.478906"/>
<line x1="842" y1="252.198" x2="1455" y2="252.198" stroke="url(#paint8_linear_31_655)" stroke-opacity="0.4" stroke-width="0.478906"/>
</g>
</g>
<path d="M1148.5 51.2969L1148.5 70.4531" stroke="url(#paint9_linear_31_655)" stroke-width="0.798177"/>
<path d="M1158.08 60.875L1138.92 60.875" stroke="url(#paint10_linear_31_655)" stroke-width="0.798177"/>
<path d="M1033.56 131.115L1033.56 143.885" stroke="url(#paint11_linear_31_655)" stroke-width="0.798177"/>
<path d="M1043.14 137.5L1023.98 137.5" stroke="url(#paint12_linear_31_655)" stroke-width="0.798177"/>
<path d="M1340.86 244.456L1340.86 258.823" stroke="url(#paint13_linear_31_655)" stroke-width="0.798177"/>
<path d="M1348.04 251.639L1333.68 251.639" stroke="url(#paint14_linear_31_655)" stroke-width="0.798177"/>
<path d="M995.5 203.375L995.5 223.625" stroke="url(#paint15_linear_31_655)" stroke-width="0.798177"/>
<path d="M1005.62 213.5L985.375 213.5" stroke="url(#paint16_linear_31_655)" stroke-width="0.798177"/>
<path d="M1302.55 12.9844L1302.55 32.1406" stroke="url(#paint17_linear_31_655)" stroke-width="0.798177"/>
<path d="M1312.13 22.5625L1292.97 22.5625" stroke="url(#paint18_linear_31_655)" stroke-width="0.798177"/>
<path d="M1225.12 88.8112L1225.12 107.967" stroke="url(#paint19_linear_31_655)" stroke-width="0.798177"/>
<path d="M1234.7 98.3893L1215.55 98.3893" stroke="url(#paint20_linear_31_655)" stroke-width="0.798177"/>
<circle cx="1071.87" cy="99.1875" r="1.59635" fill="#036AE5" fill-opacity="0.2"/>
<circle cx="1225.12" cy="22.5625" r="1.59635" fill="#036AE5" fill-opacity="0.2"/>
<circle cx="1264.24" cy="175.813" r="1.59635" fill="#036AE5" fill-opacity="0.2"/>
<circle cx="956.937" cy="137.5" r="1.59635" fill="#036AE5" fill-opacity="0.2"/>
<path d="M1299 61H1340V137H1264.5" stroke="white" stroke-opacity="0.6"/>
<circle cx="1264" cy="61" r="2" fill="white"/>
<circle cx="1339" cy="62" r="2" fill="white"/>
<circle cx="1339" cy="136" r="2" fill="white"/>
<rect x="918.625" y="175.812" width="39.1107" height="38.3125" fill="white" fill-opacity="0.3"/>
<rect x="1340" y="176" width="40" height="38" fill="#036AE5" fill-opacity="0.1"/>
<g opacity="0.75" filter="url(#filter0_i_31_655)">
<path d="M1320.05 88.8913C1319.18 90.0642 1318.07 91.0436 1316.8 91.7675C1315.53 92.4913 1314.12 92.9436 1312.67 93.0957C1311.21 93.2478 1309.74 93.0963 1308.34 92.6508C1306.95 92.2054 1305.66 91.4758 1304.57 90.5083C1303.47 89.5409 1302.59 88.3568 1301.98 87.0314C1301.36 85.706 1301.04 84.2683 1301.01 82.8097C1300.99 81.3511 1301.27 79.9035 1301.84 78.559C1302.41 77.2144 1303.25 76.0024 1304.31 75L1320.05 88.8913Z" fill="#036AE5"/>
<path d="M1289.87 108.191C1288.64 107.407 1287.58 106.376 1286.77 105.164C1285.96 103.953 1285.41 102.586 1285.16 101.152C1284.91 99.7181 1284.96 98.2473 1285.3 96.833C1285.65 95.4187 1286.29 94.0917 1287.18 92.9362C1288.07 91.7806 1289.19 90.8217 1290.47 90.1202C1291.75 89.4186 1293.16 88.9897 1294.62 88.8607C1296.07 88.7316 1297.54 88.9052 1298.93 89.3704C1300.31 89.8357 1301.58 90.5824 1302.67 91.5634L1289.87 108.191Z" fill="#036AE5"/>
<path d="M1291.48 109.189C1292.35 108.015 1293.45 107.033 1294.72 106.305C1295.99 105.577 1297.39 105.12 1298.84 104.961C1300.3 104.803 1301.77 104.948 1303.16 105.386C1304.56 105.824 1305.85 106.546 1306.95 107.507C1308.05 108.467 1308.94 109.645 1309.56 110.965C1310.17 112.285 1310.51 113.719 1310.54 115.176C1310.58 116.633 1310.31 118.08 1309.75 119.427C1309.19 120.774 1308.36 121.991 1307.3 123L1291.48 109.189Z" fill="#036AE5"/>
</g>
<g clip-path="url(#clip4_31_655)">
<foreignObject x="1000.17" y="-18.2012" width="348.835" height="334.732"><div xmlns="http://www.w3.org/1999/xhtml" style="backdrop-filter:blur(32px);clip-path:url(#bgblur_5_31_655_clip_path);height:100%;width:100%"></div></foreignObject><path opacity="0.67" data-figma-bg-blur-radius="64" d="M1192.69 252.519H1068.04C1065.24 252.519 1063.37 249.628 1064.51 247.064L1152.95 48.0948C1153.56 46.6962 1154.95 45.7988 1156.48 45.7988H1281.13C1283.93 45.7988 1285.8 48.6892 1284.66 51.2532L1196.22 250.234C1195.61 251.633 1194.22 252.53 1192.69 252.53V252.519Z" fill="url(#paint21_linear_31_655)"/>
<path d="M1230.47 112.173L1270.7 21.6735C1271.67 19.4825 1270.07 17 1267.67 17H1154.8C1150.61 17 1146.81 19.4708 1145.1 23.3052L1104.27 115.179C1103.29 117.371 1104.9 119.853 1107.29 119.853H1218.66C1223.76 119.853 1228.39 116.846 1230.47 112.173Z" fill="white" fill-opacity="0.1"/>
<path d="M1215.87 174.187L1256.1 83.6884C1257.08 81.4973 1255.47 79.0148 1253.08 79.0148H1140.2C1136.02 79.0148 1132.22 81.4856 1130.51 85.32L1089.68 177.194C1088.7 179.385 1090.3 181.868 1092.7 181.868H1204.07C1209.17 181.868 1213.79 178.861 1215.87 174.187Z" stroke="white" stroke-width="1.11" stroke-miterlimit="10"/>
<path opacity="0.39" d="M1164.71 142.218H1164.96C1167.2 142.218 1168.65 144.586 1167.63 146.582L1156.85 167.714C1156.34 168.718 1155.31 169.351 1154.18 169.351H1077.18C1074.94 169.351 1073.49 166.984 1074.5 164.988L1075.66 162.719" stroke="#0067E2" stroke-width="0.55" stroke-miterlimit="10"/>
<path d="M1184 52.5819C1180.51 64.7844 1167.81 74.6792 1155.64 74.6792C1143.48 74.6792 1136.44 64.7844 1139.92 52.5819C1143.41 40.3794 1156.11 30.4845 1168.27 30.4845C1180.44 30.4845 1187.48 40.3794 1184 52.5819Z" fill="#E6F4FF"/>
<path d="M1181.41 52.5819C1178.33 63.3508 1167.12 72.0802 1156.39 72.0802C1145.65 72.0802 1139.44 63.3508 1142.52 52.5819C1145.6 41.8129 1156.81 33.0835 1167.54 33.0835C1178.28 33.0835 1184.49 41.8129 1181.41 52.5819Z" fill="#83B3ED"/>
<path d="M1162.31 56.4862C1162.31 56.4862 1152.1 58.1761 1147.73 59.901C1144.77 61.6959 1144.3 63.1177 1143.59 65.2506C1143.59 65.2506 1143.59 65.2622 1143.59 65.2739C1145.96 69.4346 1150.48 72.0802 1156.39 72.0802C1164.01 72.0802 1171.85 67.6631 1176.87 61.253C1174.14 57.2321 1162.33 56.4745 1162.33 56.4745L1162.31 56.4862Z" fill="#036AE5"/>
<path d="M1158.72 52.1273L1156.96 59.5863C1156.74 60.5187 1157.2 61.2996 1158.08 61.4394C1159.47 61.6609 1161.66 61.6492 1164 60.1458C1164.71 59.6912 1165.18 58.922 1165.23 58.1994C1165.47 54.7147 1166.18 47.5703 1166.18 47.5703L1158.71 52.1157L1158.72 52.1273Z" fill="#FF8D68"/>
<path d="M1157.13 44.2138C1157.13 44.2138 1152.33 53.9571 1153.26 56.5794C1154.34 58.3626 1163.99 54.3534 1165.57 51.7427C1167.15 49.132 1170.77 44.4002 1167.95 41.4399C1165.13 38.4796 1160.76 39.4936 1157.12 44.2138H1157.13Z" fill="#FF8D68"/>
<path d="M1157.13 44.2137C1157.13 44.2137 1156.28 40.7756 1159.19 38.7477C1162.09 36.7197 1165.82 37.1277 1167.16 39.1556C1168.5 41.1835 1168.61 41.4865 1168.61 41.4865C1168.61 41.4865 1170.04 41.7896 1170.52 43.3163C1170.99 44.8431 1167.97 48.6892 1166.74 49.808C1165.51 50.9269 1165.76 50.9502 1165.76 50.9502L1165.36 50.4141C1165.36 50.4141 1165.59 47.4771 1166.18 45.7522C1166.35 44.8431 1165.3 43.5261 1163.48 43.2114C1161.64 42.9084 1160.97 44.6217 1157.13 44.2254V44.2137Z" fill="#7E3636"/>
<path d="M1166.49 48.6542C1166.49 48.6542 1167.15 47.4071 1168.34 47.7684C1169.53 48.1647 1167.17 51.8826 1165.92 51.6262C1164.72 51.3231 1166.49 48.6542 1166.49 48.6542Z" fill="#FF8D68"/>
<path d="M1165.32 56.8008C1165.32 56.8008 1162.76 59.6446 1160.23 60.4488C1159.79 60.5886 1159.13 61.4627 1159.13 61.4627L1158.66 60.2506C1158.66 60.2506 1156.93 59.2367 1157.43 57.4768L1157.08 57.7449L1156.15 60.0409C1156.15 60.0409 1155.47 62.2086 1155.5 63.0128L1157.83 61.7308C1157.83 61.7308 1159.25 62.2086 1160.37 61.8007C1160.37 61.8007 1160.85 63.4207 1161.29 63.5606C1161.72 63.7004 1165.23 60.3788 1165.76 59.2367C1166.36 58.0829 1166.22 56.9407 1166.22 56.9407L1165.31 56.8008H1165.32Z" fill="white"/>
<path opacity="0.39" d="M1239.36 61.0898H1190.46C1188.96 61.0898 1188.18 59.8661 1188.73 58.3626L1195.65 39.2955C1196.2 37.792 1197.86 36.5683 1199.36 36.5683H1248.26C1249.76 36.5683 1250.53 37.792 1249.99 39.2955L1243.06 58.3626C1242.52 59.8661 1240.85 61.0898 1239.36 61.0898Z" fill="#0067E2"/>
<path d="M1242.18 45.1928H1200.08L1200.82 43.1532H1242.92L1242.18 45.1928Z" fill="#83B3ED"/>
<path d="M1223.7 49.9596H1198.35L1199.09 47.92H1224.45L1223.7 49.9596Z" fill="#83B3ED"/>
<path d="M1203.34 54.2718H1196.78L1197.52 52.2322H1204.09L1203.34 54.2718Z" fill="#83B3ED"/>
<path d="M1192.72 69.8542C1192.04 71.5441 1190.12 72.9194 1188.42 72.9194C1186.73 72.9194 1185.91 71.5441 1186.6 69.8542C1187.29 68.1643 1189.2 66.789 1190.9 66.789C1192.6 66.789 1193.41 68.1643 1192.72 69.8542Z" fill="#83B3ED"/>
<path d="M1203.36 69.8542C1202.67 71.5441 1200.75 72.9194 1199.06 72.9194C1197.36 72.9194 1196.55 71.5441 1197.23 69.8542C1197.92 68.1643 1199.84 66.789 1201.53 66.789C1203.23 66.789 1204.04 68.1643 1203.36 69.8542Z" fill="#83B3ED"/>
<path d="M1213.98 69.8542C1213.29 71.5441 1211.37 72.9194 1209.68 72.9194C1207.98 72.9194 1207.17 71.5441 1207.85 69.8542C1208.54 68.1643 1210.46 66.789 1212.15 66.789C1213.85 66.789 1214.66 68.1643 1213.98 69.8542Z" fill="#83B3ED"/>
<path d="M1224.61 69.8542C1223.92 71.5441 1222.01 72.9194 1220.31 72.9194C1218.61 72.9194 1217.8 71.5441 1218.49 69.8542C1219.17 68.1643 1221.09 66.789 1222.79 66.789C1224.48 66.789 1225.3 68.1643 1224.61 69.8542Z" fill="#FF8D02"/>
<path opacity="0.39" d="M1235.24 69.8542C1234.56 71.5441 1232.64 72.9194 1230.94 72.9194C1229.25 72.9194 1228.43 71.5441 1229.12 69.8542C1229.8 68.1643 1231.72 66.789 1233.42 66.789C1235.11 66.789 1235.93 68.1643 1235.24 69.8542Z" fill="#0067E2"/>
<path opacity="0.39" d="M1209.99 79.1896L1196.5 93.2452L1182.52 98.8045L1198.36 110.471L1214.28 96.8466L1209.99 79.1896Z" fill="#0067E2"/>
<path opacity="0.7" d="M1206.78 87.3596L1196.5 93.2452L1187.79 98.7695L1199.59 107.277L1210.76 97.0446L1206.78 87.3596Z" fill="#0067E2"/>
<path d="M1209.99 79.1896L1196.5 93.2452L1182.52 98.8045L1198.31 110.587L1214.28 96.8466L1209.99 79.1896Z" stroke="#036AE5" stroke-width="0.28" stroke-miterlimit="10"/>
<path d="M1203.65 98.1518C1203.43 98.688 1202.81 99.1308 1202.28 99.1308C1201.74 99.1308 1201.47 98.688 1201.69 98.1518C1201.92 97.6157 1202.53 97.1729 1203.07 97.1729C1203.6 97.1729 1203.87 97.6157 1203.65 98.1518Z" fill="#036AE5"/>
<path d="M1190.39 88.4551L1202.32 97.9304L1181.01 99.026" stroke="#036AE5" stroke-width="0.28" stroke-miterlimit="10"/>
<path d="M1197.43 113.851L1202.76 97.9304L1216.81 96.5202" stroke="#036AE5" stroke-width="0.28" stroke-miterlimit="10"/>
<path d="M1210.78 77.22L1202.76 97.9304" stroke="#036AE5" stroke-width="0.28" stroke-miterlimit="10"/>
<path d="M1191.47 88.2686C1191.1 89.1777 1190.07 89.9119 1189.17 89.9119C1188.26 89.9119 1187.82 89.1777 1188.19 88.2686C1188.56 87.3596 1189.59 86.6253 1190.49 86.6253C1191.4 86.6253 1191.84 87.3596 1191.47 88.2686Z" fill="#83B3ED"/>
<path d="M1181.81 99.0376C1181.44 99.9467 1180.42 100.681 1179.51 100.681C1178.61 100.681 1178.16 99.9467 1178.54 99.0376C1178.91 98.1285 1179.93 97.3943 1180.84 97.3943C1181.74 97.3943 1182.18 98.1285 1181.81 99.0376Z" fill="#FF8D02"/>
<path d="M1198.99 114.107C1198.62 115.016 1197.59 115.751 1196.69 115.751C1195.78 115.751 1195.34 115.016 1195.71 114.107C1196.08 113.198 1197.1 112.464 1198.01 112.464C1198.92 112.464 1199.36 113.198 1198.99 114.107Z" fill="#83B3ED"/>
<path d="M1218.72 96.5435C1218.35 97.4525 1217.32 98.1868 1216.42 98.1868C1215.51 98.1868 1215.07 97.4525 1215.44 96.5435C1215.81 95.6344 1216.84 94.9001 1217.74 94.9001C1218.65 94.9001 1219.09 95.6344 1218.72 96.5435Z" fill="#83B3ED"/>
<path d="M1212.59 76.6722C1212.22 77.5813 1211.2 78.3155 1210.29 78.3155C1209.39 78.3155 1208.95 77.5813 1209.32 76.6722C1209.69 75.7631 1210.71 75.0289 1211.62 75.0289C1212.52 75.0289 1212.97 75.7631 1212.59 76.6722Z" fill="#FF8D02"/>
<g filter="url(#filter3_i_31_655)">
<path d="M1175.32 90.4132H1134.39L1137.52 82.6511H1178.45L1175.32 90.4132Z" fill="#3F8EED"/>
</g>
<path opacity="0.39" d="M1150.67 107.895H1127.35L1128.68 104.562H1152.02L1150.67 107.895Z" fill="#0067E2"/>
<path opacity="0.39" d="M1147.17 101.229H1130.03L1133.16 93.4667H1150.31L1147.17 101.229Z" fill="#0067E2"/>
<path d="M1238.09 184.094L1258.12 139.037C1258.61 137.941 1257.81 136.706 1256.62 136.706H1200.43C1198.35 136.706 1196.45 137.941 1195.61 139.841L1175.27 185.586C1174.78 186.681 1175.58 187.917 1176.77 187.917H1232.22C1234.77 187.917 1237.07 186.413 1238.1 184.094H1238.09Z" fill="white" fill-opacity="0.1"/>
<path opacity="0.39" d="M1235.42 161.437C1231.37 171.472 1220 179.607 1209.99 179.607C1199.99 179.607 1195.15 171.472 1199.2 161.437C1203.24 151.402 1214.62 143.267 1224.62 143.267C1234.63 143.267 1239.46 151.402 1235.42 161.437Z" fill="#0067E2"/>
<mask id="mask0_31_655" style="mask-type:luminance" maskUnits="userSpaceOnUse" x="1197" y="143" width="40" height="37">
<path d="M1235.42 161.437C1231.37 171.472 1220 179.607 1209.99 179.607C1199.99 179.607 1195.15 171.472 1199.2 161.437C1203.24 151.402 1214.62 143.267 1224.62 143.267C1234.63 143.267 1239.46 151.402 1235.42 161.437Z" fill="white"/>
</mask>
<g mask="url(#mask0_31_655)">
<path d="M1218.81 163.325C1218.81 163.325 1227.92 167.87 1228.89 172.031C1229.85 176.192 1225.81 187.171 1225.81 187.171H1189.59C1189.59 187.171 1195.52 174.304 1200.14 171.274C1204.75 168.243 1213.66 165.936 1213.66 165.936L1218.81 163.325Z" fill="#036AE5"/>
<path d="M1215.08 160.365L1212.23 166.518C1211.87 167.288 1212.09 167.987 1212.76 168.197C1213.79 168.511 1215.52 168.698 1217.65 167.637C1218.3 167.311 1218.81 166.705 1219 166.099C1219.87 163.174 1221.82 157.195 1221.82 157.195L1215.07 160.365H1215.08Z" fill="#EAEDF2"/>
<path d="M1215.38 153.535C1215.38 153.535 1209.71 161.355 1209.93 163.651C1210.43 165.26 1218.79 162.731 1220.53 160.668C1222.29 158.593 1226.05 154.922 1224.41 152.16C1222.77 149.398 1219.15 149.864 1215.37 153.535H1215.38Z" fill="#EAEDF2"/>
<path d="M1215.62 152.381C1215.62 152.381 1215.52 152.509 1215.42 152.684C1215.09 153.244 1214.6 154.363 1215.96 154.433L1217.78 154.526C1217.78 154.526 1220.69 152.859 1221.84 154.619C1222.69 156.379 1219.91 157.463 1220.15 158.337C1220.38 159.223 1220.26 159.024 1219.87 159.514C1219.47 160.003 1219.16 160.784 1217.85 161.379C1216.53 161.961 1215.5 161.868 1214.24 162.556C1212.99 163.243 1210.57 162.463 1210.32 161.868C1209.74 161.379 1209.4 162.451 1209.03 163.139C1208.65 163.826 1207.5 164.024 1208.61 164.898C1209.72 165.784 1210.54 166.169 1212.48 164.992C1214.42 163.815 1214.48 163.919 1216.43 163.418C1218.38 162.929 1219.83 161.938 1220.59 160.714C1221.34 159.491 1221.58 157.929 1222.2 157.335C1222.83 156.74 1223.18 157.335 1222.9 158.022C1222.62 158.71 1225.28 157.439 1225.92 155.377C1226.56 153.314 1225.45 153.419 1225.33 152.241C1225.21 151.064 1226.55 149.689 1225.13 148.617C1223.71 147.545 1222.38 148.908 1221.87 148.221C1221.37 147.533 1219.16 147.44 1217.39 148.908C1215.63 150.377 1215.53 152.463 1215.53 152.463" fill="#036AE5"/>
<path d="M1221.87 157.544C1221.87 157.544 1222.63 156.554 1223.49 156.962C1224.34 157.404 1221.76 160.341 1220.83 160.015C1219.95 159.642 1221.86 157.556 1221.86 157.556L1221.87 157.544Z" fill="#EAEDF2"/>
<path d="M1209.71 162.183C1209.71 162.183 1210.55 159.141 1212.65 158.756C1214.76 158.372 1215.72 159.642 1215.58 160.714C1215.44 161.787 1216.37 162.381 1216.37 162.381C1216.37 162.381 1211.05 164.933 1209.71 162.183Z" fill="#036AE5"/>
</g>
<path d="M1212.88 244.92L1232.92 199.863C1233.41 198.767 1232.6 197.532 1231.42 197.532H1175.22C1173.14 197.532 1171.25 198.767 1170.4 200.667L1150.07 246.412C1149.58 247.507 1150.38 248.743 1151.56 248.743H1207.02C1209.56 248.743 1211.86 247.239 1212.9 244.92H1212.88Z" fill="white" fill-opacity="0.1"/>
<path opacity="0.39" d="M1210.48 221.948C1206.35 232.205 1194.71 240.514 1184.5 240.514C1174.28 240.514 1169.33 232.205 1173.47 221.948C1177.61 211.692 1189.24 203.382 1199.45 203.382C1209.67 203.382 1214.62 211.692 1210.48 221.948Z" fill="#0067E2"/>
<mask id="mask1_31_655" style="mask-type:luminance" maskUnits="userSpaceOnUse" x="1172" y="203" width="40" height="38">
<path d="M1210.48 221.948C1206.35 232.205 1194.71 240.514 1184.5 240.514C1174.28 240.514 1169.33 232.205 1173.47 221.948C1177.61 211.692 1189.24 203.382 1199.45 203.382C1209.67 203.382 1214.62 211.692 1210.48 221.948Z" fill="white"/>
</mask>
<g mask="url(#mask1_31_655)">
<path d="M1197.12 216.669C1197.12 216.669 1199.87 215.352 1200.24 216.949C1200.61 218.545 1199.39 219.687 1199.39 219.687C1199.39 219.687 1201.88 219 1202.55 221.133C1203.22 223.265 1201.22 224.279 1202.04 225.049C1202.87 225.818 1204.59 227.438 1202.18 230.142C1199.78 232.846 1196.26 235.946 1192.19 233.953C1188.11 231.96 1189.41 222.228 1189.41 222.228L1190.41 219.384L1197.12 216.669Z" fill="#036AE5"/>
<path d="M1194.46 208.511C1194.46 208.511 1188.31 209.035 1186.37 213.347C1184.43 217.66 1188.28 217.963 1188.28 217.963L1194.46 208.511Z" fill="#036AE5"/>
<path d="M1154.53 237.845L1154.92 238.556C1154.92 238.556 1159.65 244.221 1163.87 247.845H1172.64C1177.22 243.661 1183.46 236.377 1183.5 236.074C1183.53 235.654 1188.99 229.699 1187.8 227.263C1186.59 224.839 1185.03 225.223 1185.03 225.223C1185.03 225.223 1183.25 225.468 1181.25 227.543C1179.26 229.617 1169.4 244.943 1169.4 244.943C1169.4 244.943 1168.14 242.659 1165.81 240.911C1163.48 239.162 1156.67 235.48 1156.67 235.48C1156.67 235.48 1157.08 232.519 1157.05 231.96C1157.01 231.389 1155.32 228.813 1154.8 229.361C1154.28 229.92 1155.48 232.344 1155.48 232.344C1155.48 232.344 1154.16 237.123 1154.55 237.834L1154.53 237.845Z" fill="#EDF0F4"/>
<path d="M1176.48 243.556C1176.48 243.556 1176.73 245.444 1177.25 247.845H1194.66C1195.05 243.906 1195.86 235.981 1196.35 234.093C1197 231.564 1196.43 226.179 1196.64 224.699C1196.85 223.219 1192.64 223.767 1192.64 223.767L1187.16 223.86L1186.27 224.244C1185.05 224.769 1183.96 225.69 1183.24 226.785C1182.57 227.822 1181.56 229.349 1180.22 231.342C1178.06 232.985 1173.28 235.853 1173.63 239.466C1173.98 243.078 1176.5 243.556 1176.5 243.556H1176.48Z" fill="#036AE5"/>
<path d="M1188.98 220.515C1188.98 220.515 1184.11 226.552 1182.78 234.163C1184.37 233.673 1189.19 229.233 1192.05 226.517C1193.25 225.375 1193.36 224.746 1193.14 223.58C1193.04 222.997 1193.54 221.401 1194.21 219.571C1194.65 217.042 1188.99 220.515 1188.99 220.515H1188.98Z" fill="#EDF0F4"/>
<path d="M1204.26 245.235C1204.26 245.235 1205.02 246.283 1206.27 247.857H1214.06C1212.56 245.864 1211.36 244.244 1210.99 243.684C1209.71 241.75 1200.81 222.263 1195.38 224.687C1194.39 225.13 1190.76 228.184 1192.24 231.61C1193.71 235.037 1204.26 245.235 1204.26 245.235Z" fill="#EDF0F4"/>
<path d="M1188.77 212.543C1188.01 213.51 1186.08 216.039 1184.94 218.266C1183.94 220.212 1184.62 221.995 1186.48 222.193C1189.17 222.485 1193.25 221.809 1194.59 220.27C1196.59 217.986 1200.86 213.942 1199.13 210.795C1197.44 207.741 1193.61 208.056 1189.47 211.785C1189.21 212.019 1188.98 212.263 1188.77 212.531V212.543Z" fill="#EDF0F4"/>
<path d="M1190.57 210.55C1190.57 210.55 1187.89 214.956 1195.52 217.776L1196.49 218.207C1196.49 218.207 1199.82 215.55 1199.87 212.741C1199.92 209.932 1198.48 208.907 1197.01 208.289C1195.56 207.683 1191.6 209.49 1190.57 210.55Z" fill="#036AE5"/>
<path d="M1195.32 218.405C1195.32 218.405 1197.24 217.065 1197.22 218.301C1197.2 219.536 1194.49 220.853 1194.2 220.34C1193.92 219.827 1195.3 218.405 1195.3 218.405H1195.32Z" fill="#EDF0F4"/>
</g>
<g filter="url(#filter6_i_31_655)">
<path d="M1151.82 207.578H1089.92C1088.03 207.578 1087.11 206.028 1087.87 204.128L1092.28 193.208C1093.05 191.308 1095.21 189.758 1097.1 189.758H1159C1160.9 189.758 1161.81 191.296 1161.05 193.208L1156.64 204.128C1155.88 206.028 1153.71 207.578 1151.81 207.578H1151.82Z" fill="#036AE5" fill-opacity="0.55"/>
</g>
<path d="M1151.33 199.536H1098.03L1099.08 196.949H1152.38L1151.33 199.536Z" fill="white"/>
<path d="M1101.76 27.7107H1099.67C1099.3 27.7107 1099.12 27.4077 1099.27 27.0348L1100.12 24.9369C1100.27 24.5639 1100.69 24.2609 1101.06 24.2609H1103.15C1103.53 24.2609 1103.7 24.5639 1103.55 24.9369L1102.7 27.0348C1102.55 27.4077 1102.13 27.7107 1101.76 27.7107Z" fill="#F9FBFC"/>
<path d="M1123.23 27.7107H1121.14C1120.77 27.7107 1120.6 27.4077 1120.75 27.0348L1121.6 24.9369C1121.75 24.5639 1122.17 24.2609 1122.54 24.2609H1124.63C1125 24.2609 1125.17 24.5639 1125.02 24.9369L1124.18 27.0348C1124.02 27.4077 1123.61 27.7107 1123.23 27.7107Z" fill="#BFD9FF"/>
<path d="M1097.76 37.6056H1095.67C1095.3 37.6056 1095.12 37.3025 1095.28 36.9296L1096.12 34.8317C1096.28 34.4588 1096.69 34.1558 1097.07 34.1558H1099.16C1099.53 34.1558 1099.7 34.4588 1099.55 34.8317L1098.7 36.9296C1098.55 37.3025 1098.13 37.6056 1097.76 37.6056Z" fill="#BFD9FF"/>
<path d="M1108.5 37.6056H1106.41C1106.04 37.6056 1105.86 37.3025 1106.01 36.9296L1106.86 34.8317C1107.01 34.4588 1107.43 34.1558 1107.8 34.1558H1109.89C1110.27 34.1558 1110.44 34.4588 1110.29 34.8317L1109.44 36.9296C1109.29 37.3025 1108.87 37.6056 1108.5 37.6056Z" fill="#F9FBFC"/>
<path d="M1119.24 37.6056H1117.15C1116.77 37.6056 1116.6 37.3025 1116.75 36.9296L1117.6 34.8317C1117.75 34.4588 1118.17 34.1558 1118.54 34.1558H1120.63C1121 34.1558 1121.18 34.4588 1121.03 34.8317L1120.18 36.9296C1120.03 37.3025 1119.61 37.6056 1119.24 37.6056Z" fill="#F9FBFC"/>
<path d="M1127.82 37.6056H1125.73C1125.36 37.6056 1125.19 37.3025 1125.34 36.9296L1126.19 34.8317C1126.34 34.4588 1126.76 34.1558 1127.13 34.1558H1129.22C1129.59 34.1558 1129.76 34.4588 1129.61 34.8317L1128.77 36.9296C1128.61 37.3025 1128.2 37.6056 1127.82 37.6056Z" fill="#F9FBFC"/>
<path d="M1093.78 47.5121H1091.69C1091.31 47.5121 1091.14 47.2091 1091.29 46.8361L1092.14 44.7383C1092.29 44.3653 1092.71 44.0623 1093.08 44.0623H1095.17C1095.54 44.0623 1095.72 44.3653 1095.57 44.7383L1094.72 46.8361C1094.57 47.2091 1094.15 47.5121 1093.78 47.5121Z" fill="#F9FBFC"/>
<path d="M1085.19 47.5121H1083.1C1082.73 47.5121 1082.55 47.2091 1082.7 46.8361L1083.55 44.7383C1083.7 44.3653 1084.12 44.0623 1084.49 44.0623H1086.58C1086.96 44.0623 1087.13 44.3653 1086.98 44.7383L1086.13 46.8361C1085.98 47.2091 1085.56 47.5121 1085.19 47.5121Z" fill="#F9FBFC"/>
<path d="M1104.51 47.5121H1102.42C1102.05 47.5121 1101.88 47.2091 1102.03 46.8361L1102.88 44.7383C1103.03 44.3653 1103.45 44.0623 1103.82 44.0623H1105.91C1106.28 44.0623 1106.45 44.3653 1106.3 44.7383L1105.46 46.8361C1105.3 47.2091 1104.89 47.5121 1104.51 47.5121Z" fill="#F9FBFC"/>
<path d="M1115.25 47.5121H1113.16C1112.79 47.5121 1112.61 47.2091 1112.76 46.8361L1113.61 44.7383C1113.76 44.3653 1114.18 44.0623 1114.55 44.0623H1116.65C1117.02 44.0623 1117.19 44.3653 1117.04 44.7383L1116.19 46.8361C1116.04 47.2091 1115.62 47.5121 1115.25 47.5121Z" fill="#BFD9FF"/>
<path d="M1089.79 57.4186H1087.7C1087.33 57.4186 1087.15 57.1156 1087.3 56.7426L1088.15 54.6448C1088.3 54.2718 1088.72 53.9688 1089.09 53.9688H1091.19C1091.56 53.9688 1091.73 54.2718 1091.58 54.6448L1090.73 56.7426C1090.58 57.1156 1090.16 57.4186 1089.79 57.4186Z" fill="#F9FBFC"/>
<path d="M1102.61 222.158H1099.66C1099.13 222.158 1098.88 221.739 1099.09 221.214L1100.28 218.254C1100.49 217.729 1101.09 217.31 1101.61 217.31H1104.56C1105.08 217.31 1105.34 217.729 1105.12 218.254L1103.92 221.214C1103.71 221.739 1103.12 222.158 1102.6 222.158H1102.61Z" fill="#5F9AE0"/>
<path d="M1132.88 222.158H1129.93C1129.4 222.158 1129.15 221.739 1129.36 221.214L1130.56 218.254C1130.76 217.729 1131.36 217.31 1131.88 217.31H1134.83C1135.35 217.31 1135.61 217.729 1135.39 218.254L1134.19 221.214C1133.98 221.739 1133.39 222.158 1132.87 222.158H1132.88Z" fill="#5F9AE0"/>
<path d="M1096.98 236.121H1094.03C1093.51 236.121 1093.25 235.701 1093.48 235.177L1094.67 232.216C1094.88 231.692 1095.47 231.272 1096 231.272H1098.95C1099.47 231.272 1099.73 231.692 1099.52 232.216L1098.32 235.177C1098.11 235.701 1097.52 236.121 1097 236.121H1096.98Z" fill="#BFD9FF"/>
<path d="M1112.11 236.121H1109.16C1108.64 236.121 1108.38 235.701 1108.6 235.177L1109.8 232.216C1110.01 231.692 1110.6 231.272 1111.13 231.272H1114.08C1114.6 231.272 1114.86 231.692 1114.65 232.216L1113.45 235.177C1113.24 235.701 1112.65 236.121 1112.13 236.121H1112.11Z" fill="#FF8D02"/>
<path d="M1127.26 236.121H1124.3C1123.78 236.121 1123.53 235.701 1123.75 235.177L1124.94 232.216C1125.15 231.692 1125.74 231.272 1126.27 231.272H1129.22C1129.74 231.272 1130 231.692 1129.79 232.216L1128.59 235.177C1128.38 235.701 1127.79 236.121 1127.27 236.121H1127.26Z" fill="#BFD9FF"/>
<path d="M1139.35 236.121H1136.4C1135.88 236.121 1135.62 235.701 1135.83 235.177L1137.03 232.216C1137.24 231.692 1137.83 231.272 1138.35 231.272H1141.3C1141.83 231.272 1142.08 231.692 1141.86 232.216L1140.66 235.177C1140.46 235.701 1139.86 236.121 1139.34 236.121H1139.35Z" fill="#BFD9FF"/>
<path d="M1091.36 250.083H1088.41C1087.89 250.083 1087.63 249.663 1087.85 249.139L1089.05 246.179C1089.26 245.654 1089.85 245.235 1090.37 245.235H1093.32C1093.85 245.235 1094.1 245.654 1093.89 246.179L1092.7 249.139C1092.49 249.663 1091.89 250.083 1091.37 250.083H1091.36Z" fill="#BFD9FF"/>
<path d="M1079.26 250.083H1076.31C1075.79 250.083 1075.53 249.663 1075.75 249.139L1076.95 246.179C1077.16 245.654 1077.75 245.235 1078.28 245.235H1081.23C1081.75 245.235 1082.01 245.654 1081.8 246.179L1080.6 249.139C1080.39 249.663 1079.8 250.083 1079.28 250.083H1079.26Z" fill="#BFD9FF"/>
<path d="M1106.49 250.083H1103.54C1103.02 250.083 1102.76 249.663 1102.98 249.139L1104.18 246.179C1104.39 245.654 1104.98 245.235 1105.5 245.235H1108.45C1108.98 245.235 1109.23 245.654 1109.01 246.179L1107.81 249.139C1107.61 249.663 1107.01 250.083 1106.49 250.083Z" fill="#BFD9FF"/>
<path d="M1121.63 250.083H1118.68C1118.16 250.083 1117.9 249.663 1118.12 249.139L1119.32 246.179C1119.53 245.654 1120.12 245.235 1120.64 245.235H1123.59C1124.12 245.235 1124.37 245.654 1124.15 246.179L1122.96 249.139C1122.75 249.663 1122.15 250.083 1121.63 250.083Z" fill="#FF8D02"/>
<path d="M1085.74 264.045H1082.78C1082.26 264.045 1082.01 263.626 1082.23 263.101L1083.42 260.141C1083.63 259.616 1084.23 259.197 1084.75 259.197H1087.7C1088.22 259.197 1088.48 259.616 1088.26 260.141L1087.06 263.101C1086.85 263.626 1086.26 264.045 1085.74 264.045Z" fill="#FF8D02"/>
<path opacity="0.39" d="M1155.19 161.19C1154.5 162.529 1153.13 163.372 1151.63 163.372H1076.88C1073.89 163.372 1071.96 160.216 1073.32 157.554L1083.08 138.422C1083.76 137.083 1085.14 136.24 1086.64 136.24H1161.39C1164.38 136.24 1166.31 139.397 1164.96 142.058L1155.19 161.19Z" fill="#0067E2" fill-opacity="0.54"/>
<g filter="url(#filter8_i_31_655)">
<path d="M1151.62 149.689C1150.11 155.784 1143.95 160.726 1137.88 160.726C1131.8 160.726 1128.1 155.784 1129.61 149.689C1131.12 143.594 1137.28 138.652 1143.36 138.652C1149.44 138.652 1153.13 143.594 1151.62 149.689Z" fill="#187DF5"/>
</g>
<path d="M1137.78 155.295C1137.43 155.295 1137.12 155.167 1136.92 154.899L1134.08 151.099C1133.68 150.575 1133.89 149.712 1134.55 149.176C1135.22 148.652 1136.06 148.652 1136.47 149.176L1138.6 152.02L1146.18 145.925C1146.85 145.4 1147.7 145.4 1148.1 145.925C1148.5 146.449 1148.29 147.312 1147.63 147.848L1138.84 154.899C1138.52 155.167 1138.13 155.295 1137.78 155.295Z" fill="white"/>
</g>
<circle cx="1086" cy="61" r="21" fill="black" fill-opacity="0.01" stroke="#0160D2" stroke-width="4"/>
<path d="M1063.71 66.5517L1049.75 72.4431C1048.55 72.9713 1048.32 75.095 1049.22 77.1863C1050.12 79.2777 1051.81 80.539 1053 80L1066.96 74.1086L1063.71 66.5517Z" fill="#0D53A5"/>
</g>
<defs>
<filter id="filter0_i_31_655" x="1285" y="75" width="35.0513" height="52" filterUnits="userSpaceOnUse" color-interpolation-filters="sRGB">
<feFlood flood-opacity="0" result="BackgroundImageFix"/>
<feBlend mode="normal" in="SourceGraphic" in2="BackgroundImageFix" result="shape"/>
<feColorMatrix in="SourceAlpha" type="matrix" values="0 0 0 0 0 0 0 0 0 0 0 0 0 0 0 0 0 0 127 0" result="hardAlpha"/>
<feOffset dy="4"/>
<feGaussianBlur stdDeviation="2"/>
<feComposite in2="hardAlpha" operator="arithmetic" k2="-1" k3="1"/>
<feColorMatrix type="matrix" values="0 0 0 0 0 0 0 0 0 0 0 0 0 0 0 0 0 0 0.25 0"/>
<feBlend mode="normal" in2="shape" result="effect1_innerShadow_31_655"/>
</filter>
<clipPath id="bgblur_5_31_655_clip_path" transform="translate(-1000.17 18.2012)"><path d="M1192.69 252.519H1068.04C1065.24 252.519 1063.37 249.628 1064.51 247.064L1152.95 48.0948C1153.56 46.6962 1154.95 45.7988 1156.48 45.7988H1281.13C1283.93 45.7988 1285.8 48.6892 1284.66 51.2532L1196.22 250.234C1195.61 251.633 1194.22 252.53 1192.69 252.53V252.519Z"/>
</clipPath><filter id="filter3_i_31_655" x="1134.39" y="82.6511" width="44.064" height="11.762" filterUnits="userSpaceOnUse" color-interpolation-filters="sRGB">
<feFlood flood-opacity="0" result="BackgroundImageFix"/>
<feBlend mode="normal" in="SourceGraphic" in2="BackgroundImageFix" result="shape"/>
<feColorMatrix in="SourceAlpha" type="matrix" values="0 0 0 0 0 0 0 0 0 0 0 0 0 0 0 0 0 0 127 0" result="hardAlpha"/>
<feOffset dy="4"/>
<feGaussianBlur stdDeviation="2"/>
<feComposite in2="hardAlpha" operator="arithmetic" k2="-1" k3="1"/>
<feColorMatrix type="matrix" values="0 0 0 0 0 0 0 0 0 0 0 0 0 0 0 0 0 0 0.25 0"/>
<feBlend mode="normal" in2="shape" result="effect1_innerShadow_31_655"/>
</filter>
<filter id="filter6_i_31_655" x="1087.6" y="189.758" width="73.7144" height="21.8201" filterUnits="userSpaceOnUse" color-interpolation-filters="sRGB">
<feFlood flood-opacity="0" result="BackgroundImageFix"/>
<feBlend mode="normal" in="SourceGraphic" in2="BackgroundImageFix" result="shape"/>
<feColorMatrix in="SourceAlpha" type="matrix" values="0 0 0 0 0 0 0 0 0 0 0 0 0 0 0 0 0 0 127 0" result="hardAlpha"/>
<feOffset dy="4"/>
<feGaussianBlur stdDeviation="2"/>
<feComposite in2="hardAlpha" operator="arithmetic" k2="-1" k3="1"/>
<feColorMatrix type="matrix" values="0 0 0 0 0 0 0 0 0 0 0 0 0 0 0 0 0 0 0.25 0"/>
<feBlend mode="normal" in2="shape" result="effect1_innerShadow_31_655"/>
</filter>
<filter id="filter8_i_31_655" x="1129.28" y="138.652" width="22.6846" height="26.074" filterUnits="userSpaceOnUse" color-interpolation-filters="sRGB">
<feFlood flood-opacity="0" result="BackgroundImageFix"/>
<feBlend mode="normal" in="SourceGraphic" in2="BackgroundImageFix" result="shape"/>
<feColorMatrix in="SourceAlpha" type="matrix" values="0 0 0 0 0 0 0 0 0 0 0 0 0 0 0 0 0 0 127 0" result="hardAlpha"/>
<feOffset dy="4"/>
<feGaussianBlur stdDeviation="2"/>
<feComposite in2="hardAlpha" operator="arithmetic" k2="-1" k3="1"/>
<feColorMatrix type="matrix" values="0 0 0 0 0 0 0 0 0 0 0 0 0 0 0 0 0 0 0.25 0"/>
<feBlend mode="normal" in2="shape" result="effect1_innerShadow_31_655"/>
</filter>
<linearGradient id="paint0_linear_31_655" x1="288.5" y1="-43.5" x2="353.401" y2="383.048" gradientUnits="userSpaceOnUse">
<stop stop-color="#ACC1F7"/>
<stop offset="1" stop-color="white"/>
</linearGradient>
<linearGradient id="paint1_linear_31_655" x1="984.5" y1="313.399" x2="1453.6" y2="-203.454" gradientUnits="userSpaceOnUse">
<stop stop-color="#036AE5" stop-opacity="0"/>
<stop offset="1" stop-color="#036AE5" stop-opacity="0.7"/>
</linearGradient>
<linearGradient id="paint2_linear_31_655" x1="842" y1="23.0625" x2="1455" y2="23.0625" gradientUnits="userSpaceOnUse">
<stop stop-color="#036AE5" stop-opacity="0.54"/>
<stop offset="1" stop-color="#036AE5"/>
</linearGradient>
<linearGradient id="paint3_linear_31_655" x1="842" y1="61.375" x2="1455" y2="61.375" gradientUnits="userSpaceOnUse">
<stop stop-color="#036AE5" stop-opacity="0.54"/>
<stop offset="1" stop-color="#036AE5"/>
</linearGradient>
<linearGradient id="paint4_linear_31_655" x1="842" y1="99.6875" x2="1455" y2="99.6875" gradientUnits="userSpaceOnUse">
<stop stop-color="#036AE5" stop-opacity="0.54"/>
<stop offset="1" stop-color="#036AE5"/>
</linearGradient>
<linearGradient id="paint5_linear_31_655" x1="842" y1="138" x2="1455" y2="138" gradientUnits="userSpaceOnUse">
<stop stop-color="#036AE5" stop-opacity="0.54"/>
<stop offset="1" stop-color="#036AE5"/>
</linearGradient>
<linearGradient id="paint6_linear_31_655" x1="842" y1="176.312" x2="1455" y2="176.312" gradientUnits="userSpaceOnUse">
<stop stop-color="#036AE5" stop-opacity="0.54"/>
<stop offset="1" stop-color="#036AE5"/>
</linearGradient>
<linearGradient id="paint7_linear_31_655" x1="842" y1="214.625" x2="1455" y2="214.625" gradientUnits="userSpaceOnUse">
<stop stop-color="#036AE5" stop-opacity="0.54"/>
<stop offset="1" stop-color="#036AE5"/>
</linearGradient>
<linearGradient id="paint8_linear_31_655" x1="842" y1="252.938" x2="1455" y2="252.938" gradientUnits="userSpaceOnUse">
<stop stop-color="#036AE5" stop-opacity="0.54"/>
<stop offset="1" stop-color="#036AE5"/>
</linearGradient>
<linearGradient id="paint9_linear_31_655" x1="1148.5" y1="70.4531" x2="1148.5" y2="51.2969" gradientUnits="userSpaceOnUse">
<stop stop-color="#036AE5" stop-opacity="0"/>
<stop offset="0.50284" stop-color="#036AE5"/>
<stop offset="1" stop-color="#036AE5" stop-opacity="0"/>
</linearGradient>
<linearGradient id="paint10_linear_31_655" x1="1138.92" y1="60.875" x2="1158.08" y2="60.875" gradientUnits="userSpaceOnUse">
<stop stop-color="#036AE5" stop-opacity="0"/>
<stop offset="0.50284" stop-color="#036AE5"/>
<stop offset="1" stop-color="#036AE5" stop-opacity="0"/>
</linearGradient>
<linearGradient id="paint11_linear_31_655" x1="1033.56" y1="143.885" x2="1033.56" y2="131.115" gradientUnits="userSpaceOnUse">
<stop stop-color="#036AE5" stop-opacity="0"/>
<stop offset="0.50284" stop-color="#036AE5"/>
<stop offset="1" stop-color="#036AE5" stop-opacity="0"/>
</linearGradient>
<linearGradient id="paint12_linear_31_655" x1="1023.98" y1="137.5" x2="1043.14" y2="137.5" gradientUnits="userSpaceOnUse">
<stop stop-color="#036AE5" stop-opacity="0"/>
<stop offset="0.50284" stop-color="#036AE5"/>
<stop offset="1" stop-color="#036AE5" stop-opacity="0"/>
</linearGradient>
<linearGradient id="paint13_linear_31_655" x1="1340.86" y1="258.823" x2="1340.86" y2="244.456" gradientUnits="userSpaceOnUse">
<stop stop-color="#036AE5" stop-opacity="0"/>
<stop offset="0.50284" stop-color="#036AE5"/>
<stop offset="1" stop-color="#036AE5" stop-opacity="0"/>
</linearGradient>
<linearGradient id="paint14_linear_31_655" x1="1333.68" y1="251.639" x2="1348.04" y2="251.639" gradientUnits="userSpaceOnUse">
<stop stop-color="#036AE5" stop-opacity="0"/>
<stop offset="0.50284" stop-color="#036AE5"/>
<stop offset="1" stop-color="#036AE5" stop-opacity="0"/>
</linearGradient>
<linearGradient id="paint15_linear_31_655" x1="995.5" y1="223.625" x2="995.5" y2="203.375" gradientUnits="userSpaceOnUse">
<stop stop-color="white" stop-opacity="0"/>
<stop offset="0.50284" stop-color="white"/>
<stop offset="1" stop-color="white" stop-opacity="0"/>
</linearGradient>
<linearGradient id="paint16_linear_31_655" x1="985.375" y1="213.5" x2="1005.62" y2="213.5" gradientUnits="userSpaceOnUse">
<stop stop-color="white" stop-opacity="0"/>
<stop offset="0.50284" stop-color="white"/>
<stop offset="1" stop-color="white" stop-opacity="0"/>
</linearGradient>
<linearGradient id="paint17_linear_31_655" x1="1302.55" y1="32.1406" x2="1302.55" y2="12.9844" gradientUnits="userSpaceOnUse">
<stop stop-color="#036AE5" stop-opacity="0"/>
<stop offset="0.50284" stop-color="#036AE5"/>
<stop offset="1" stop-color="#036AE5" stop-opacity="0"/>
</linearGradient>
<linearGradient id="paint18_linear_31_655" x1="1292.97" y1="22.5625" x2="1312.13" y2="22.5625" gradientUnits="userSpaceOnUse">
<stop stop-color="#036AE5" stop-opacity="0"/>
<stop offset="0.50284" stop-color="#036AE5"/>
<stop offset="1" stop-color="#036AE5" stop-opacity="0"/>
</linearGradient>
<linearGradient id="paint19_linear_31_655" x1="1225.12" y1="107.967" x2="1225.13" y2="88.8112" gradientUnits="userSpaceOnUse">
<stop stop-color="#036AE5" stop-opacity="0"/>
<stop offset="0.50284" stop-color="#036AE5"/>
<stop offset="1" stop-color="#036AE5" stop-opacity="0"/>
</linearGradient>
<linearGradient id="paint20_linear_31_655" x1="1215.55" y1="98.3893" x2="1234.7" y2="98.3893" gradientUnits="userSpaceOnUse">
<stop stop-color="#036AE5" stop-opacity="0"/>
<stop offset="0.50284" stop-color="#036AE5"/>
<stop offset="1" stop-color="#036AE5" stop-opacity="0"/>
</linearGradient>
<linearGradient id="paint21_linear_31_655" x1="1064.17" y1="149.153" x2="1285" y2="149.153" gradientUnits="userSpaceOnUse">
<stop stop-color="white" stop-opacity="0.2"/>
<stop offset="1" stop-color="white" stop-opacity="0.7"/>
</linearGradient>
<clipPath id="clip0_31_655">
<rect width="1440" height="274" fill="white"/>
</clipPath>
<clipPath id="clip1_31_655">
<rect width="574.688" height="613" fill="white" transform="translate(842 -169)"/>
</clipPath>
<clipPath id="clip2_31_655">
<rect width="574.688" height="613" fill="white" transform="translate(842 -169)"/>
</clipPath>
<clipPath id="clip3_31_655">
<rect width="613" height="613" fill="white" transform="translate(842 -169)"/>
</clipPath>
<clipPath id="clip4_31_655">
<rect width="300" height="288" fill="white" transform="translate(985 17)"/>
</clipPath>
</defs>
</svg>
