<svg width="64" height="64" viewBox="0 0 64 64" fill="none" xmlns="http://www.w3.org/2000/svg">
<rect width="64" height="64" rx="32" fill="url(#paint0_linear_145_3254)"/>
<path d="M17.2667 29.7999L21.55 21.25C21.8333 20.6833 22.4167 20.3333 23.0333 20.3333H27.3167C27.9333 20.3333 28.3333 20.9833 28.0667 21.5333L23.6667 30.3333L27.8333 30.3333C29.2167 30.3333 30.3333 31.45 30.3333 32.8333V41.1666C30.3333 42.55 29.2167 43.6666 27.8333 43.6666H19.5C18.1167 43.6666 17 42.55 17 41.1666V30.9166C17 30.5333 17.0833 30.1499 17.2667 29.7999ZM33.6667 30.9166V41.1666C33.6667 42.55 34.7833 43.6666 36.1667 43.6666H44.5C45.8833 43.6666 47 42.55 47 41.1666V32.8333C47 31.45 45.8833 30.3333 44.5 30.3333H40.3333L44.7333 21.5333C45.0167 20.9833 44.6 20.3333 43.9833 20.3333H39.7C39.0667 20.3333 38.4833 20.6833 38.2167 21.25L33.9333 29.7999C33.7667 30.1499 33.6667 30.5333 33.6667 30.9166Z" fill="white"/>
<defs>
<linearGradient id="paint0_linear_145_3254" x1="32" y1="-3.81878e-06" x2="32" y2="72.1143" gradientUnits="userSpaceOnUse">
<stop stop-color="#1A3D96"/>
<stop offset="1" stop-color="#036AE5" stop-opacity="0.5"/>
</linearGradient>
</defs>
</svg>
