<svg width="32" height="32" viewBox="0 0 32 32" fill="none" xmlns="http://www.w3.org/2000/svg">
  <rect width="32" height="32" rx="12" fill="#0B69C7" fill-opacity="0.05"/>
  <rect x="0.5" y="0.5" width="31" height="31" rx="11.5" stroke="#0B69C7" stroke-opacity="0.5"/>
  <path d="M16 26C21.5228 26 26 21.5228 26 16C26 10.4772 21.5228 6 16 6C10.4772 6 6 10.4772 6 16C6 21.5228 10.4772 26 16 26Z" fill="#0B69C7"/>
  <path d="M13.5395 12.0009C13.5398 12.2982 13.4519 12.5889 13.2869 12.8361C13.1219 13.0834 12.8873 13.2762 12.6127 13.3901C12.3381 13.504 12.0359 13.5339 11.7444 13.4759C11.4528 13.418 11.185 13.2749 10.9748 13.0647C10.7646 12.8545 10.6215 12.5867 10.5635 12.2951C10.5056 12.0035 10.5355 11.7014 10.6494 11.4268C10.7633 11.1522 10.9561 10.9176 11.2033 10.7526C11.4506 10.5876 11.7413 10.4997 12.0385 10.5C12.4365 10.5004 12.818 10.6586 13.0994 10.94C13.3808 11.2214 13.5391 11.603 13.5395 12.0009Z" fill="white"/>
  <path d="M12.8288 14.1286H11.2483C11.0429 14.1286 10.8763 14.2951 10.8763 14.5005V21.128C10.8763 21.3335 11.0429 21.5 11.2483 21.5H12.8288C13.0343 21.5 13.2008 21.3335 13.2008 21.128V14.5005C13.2008 14.2951 13.0343 14.1286 12.8288 14.1286Z" fill="white"/>
  <path d="M21.4638 17.9496V21.1584C21.4638 21.249 21.4278 21.3359 21.3638 21.4C21.2997 21.464 21.2128 21.5 21.1222 21.5H19.4259C19.3353 21.5 19.2484 21.464 19.1844 21.4C19.1203 21.3359 19.0843 21.249 19.0843 21.1584V18.0495C19.0843 17.5849 19.2189 16.0232 17.8714 16.0232C16.8264 16.0232 16.6137 17.0971 16.5688 17.5791V21.1657C16.5669 21.2545 16.5305 21.3391 16.4673 21.4015C16.404 21.4639 16.319 21.4993 16.2301 21.5H14.5888C14.5439 21.5002 14.4994 21.4915 14.4579 21.4744C14.4163 21.4573 14.3786 21.4321 14.3469 21.4004C14.3151 21.3686 14.2899 21.3309 14.2729 21.2894C14.2558 21.2478 14.247 21.2033 14.2472 21.1584V14.4716C14.2471 14.4266 14.2557 14.382 14.2728 14.3404C14.2899 14.2988 14.315 14.261 14.3468 14.2291C14.3785 14.1972 14.4162 14.172 14.4578 14.1547C14.4993 14.1374 14.5438 14.1286 14.5888 14.1286H16.2301C16.2757 14.1278 16.3209 14.1361 16.3632 14.153C16.4055 14.1699 16.444 14.195 16.4764 14.2269C16.5089 14.2589 16.5347 14.297 16.5523 14.339C16.5699 14.381 16.579 14.426 16.5789 14.4716V15.0505C16.9668 14.4716 17.5429 14.02 18.7688 14.02C21.4797 14.0186 21.4638 16.5558 21.4638 17.9496Z" fill="white"/>
</svg>
