<svg width="50" height="50" viewBox="0 0 50 50" fill="none" xmlns="http://www.w3.org/2000/svg">
<path d="M6.58334 22.25L11.9375 11.5625C12.2917 10.8542 13.0208 10.4167 13.7917 10.4167H19.1458C19.9167 10.4167 20.4167 11.2292 20.0833 11.9167L14.5833 22.9167H19.7917C21.5208 22.9167 22.9167 24.3125 22.9167 26.0417V36.4584C22.9167 38.1875 21.5208 39.5834 19.7917 39.5834L9.375 39.5834C7.64583 39.5834 6.25 38.1875 6.25 36.4584V23.6459C6.25 23.1667 6.35418 22.6875 6.58334 22.25V22.25ZM27.0833 23.6459L27.0833 36.4584C27.0833 38.1875 28.4792 39.5834 30.2083 39.5834H40.625C42.3542 39.5834 43.75 38.1875 43.75 36.4584V26.0417C43.75 24.3125 42.3542 22.9167 40.625 22.9167H35.4167L40.9167 11.9167C41.2708 11.2292 40.75 10.4167 39.9792 10.4167H34.625C33.8333 10.4167 33.1042 10.8542 32.7708 11.5625L27.4167 22.25C27.2083 22.6875 27.0833 23.1667 27.0833 23.6459V23.6459Z" fill="white"/>
</svg>
