<svg width="32" height="32" viewBox="0 0 32 32" fill="none" xmlns="http://www.w3.org/2000/svg">
  <rect width="32" height="32" rx="12" fill="#25A3E0" fill-opacity="0.05"/>
  <rect x="0.5" y="0.5" width="31" height="31" rx="11.5" stroke="#25A3E0" stroke-opacity="0.5"/>
  <path fill-rule="evenodd" clip-rule="evenodd" d="M8.7379 15.0304C13.2565 13.0617 16.2696 11.7638 17.7771 11.1368C22.0816 9.34643 22.9761 9.0354 23.5591 9.02511C23.6873 9.02287 23.974 9.05466 24.1597 9.20536C24.4352 9.4289 24.4367 9.91412 24.4062 10.2353C24.1729 12.6862 23.1636 18.6339 22.6501 21.379C22.4328 22.5405 22.0049 22.93 21.5908 22.9681C20.6907 23.0509 20.0072 22.3732 19.1354 21.8018C17.7712 20.9075 17.0005 20.3508 15.6763 19.4782C14.146 18.4698 15.138 17.9155 16.0101 17.0097C16.2384 16.7726 20.2043 13.1653 20.281 12.838C20.2907 12.7971 20.2996 12.6445 20.2089 12.564C20.1183 12.4835 19.9845 12.511 19.888 12.5329C19.7512 12.564 17.5719 14.0044 13.3501 16.8542C12.7315 17.279 12.1712 17.486 11.6692 17.4752C11.1157 17.4632 10.0512 17.1622 9.25976 16.905C8.28907 16.5895 7.51758 16.4226 7.58479 15.8868C7.61978 15.6076 8.00414 15.3222 8.7379 15.0304Z" fill="#25A3E0"/>
</svg>
