<svg xmlns="http://www.w3.org/2000/svg" width="32" height="32" viewBox="0 0 32 32" fill="none">
<rect width="32" height="32" rx="12" fill="#3ACD01" fill-opacity="0.05"/>
<rect x="0.5" y="0.5" width="31" height="31" rx="11.5" stroke="#3ACD01" stroke-opacity="0.5"/>
<g clip-path="url(#clip0_52_954)">
<path fill-rule="evenodd" clip-rule="evenodd" d="M18.3875 17.1691C18.009 17.3238 17.7672 17.9164 17.5219 18.2191C17.3961 18.3742 17.2461 18.3984 17.0527 18.3207C15.632 17.7547 14.543 16.8066 13.759 15.4992C13.6262 15.2965 13.65 15.1363 13.8101 14.948C14.0469 14.6691 14.3445 14.3523 14.4086 13.9766C14.5508 13.1453 13.4641 10.5668 12.0289 11.7352C7.89921 15.1004 18.918 24.0258 20.9066 19.1984C21.4691 17.8301 19.0148 16.9121 18.3875 17.1691ZM16 24.2531C14.5394 24.2531 13.1023 23.8648 11.8441 23.1297C11.6422 23.0113 11.398 22.9801 11.1723 23.0414L8.43827 23.7918L9.39061 21.6938C9.45431 21.5537 9.47984 21.3993 9.46461 21.2461C9.44938 21.093 9.39393 20.9467 9.30389 20.8219C8.28514 19.4098 7.74647 17.7426 7.74647 16C7.74647 11.4488 11.4488 7.74648 16 7.74648C20.5512 7.74648 24.2531 11.4488 24.2531 16C24.2531 20.5508 20.5508 24.2531 16 24.2531ZM16 6C10.4859 6 5.99999 10.4859 5.99999 16C5.99999 17.9398 6.55077 19.8027 7.59725 21.4195L6.07811 24.7652C6.00947 24.9164 5.98528 25.0839 6.00839 25.2483C6.03149 25.4126 6.10093 25.567 6.20858 25.6934C6.29068 25.7894 6.39262 25.8666 6.50739 25.9195C6.62216 25.9725 6.74704 25.9999 6.87343 26C7.43671 26 10.5082 25.0348 11.2898 24.8203C12.7348 25.5934 14.3555 26 16 26C21.5137 26 26 21.5137 26 16C26 10.4859 21.5137 6 16 6Z" fill="#39AE41"/>
</g>
<defs>
<clipPath id="clip0_52_954">
<rect width="20" height="20" fill="white" transform="translate(6 6)"/>
</clipPath>
</defs>
</svg>